<svg xmlns="http://www.w3.org/2000/svg" viewBox="0 0 500 337.3">
	<defs>
		<style>
			.area {
			fill:#f3f3f3;
			stroke: #d3d3d3;
			cursor: url(tractor-cursor.png), pointer;
			}

			.area:hover,
			.selec {
			fill: #cbcbcb;
			}
		</style>
	</defs>
	<title>Ресурс 10</title>
	<g id="Слой_2" data-name="Слой 2">
		<g id="region_borders">
			<path class="area" id="region-20" fill="#d3d3d3" d="M368.46,84a6,6,0,0,1-1.24-.26A2.35,2.35,0,0,0,366,83.6c-.18,0-.24.09-.31.59a1.15,1.15,0,0,1-.37.85.73.73,0,0,1-.58.13,3.74,3.74,0,0,1-.7-.18l-.16,0a1.21,1.21,0,0,1-.53.88,1.55,1.55,0,0,1-1.37.09v.15a1.75,1.75,0,0,1-.76,1.72,2.09,2.09,0,0,1-1.71.15,2.9,2.9,0,0,0-.87-.13c-.56,0-1.77.87-2.84,1.65A26.08,26.08,0,0,1,353.6,91c-.86.5-.77.71-.42,1.48a4.35,4.35,0,0,1,.51,1.93A3.27,3.27,0,0,1,352.42,97a1.84,1.84,0,0,0-.49.57,2.44,2.44,0,0,0,.24,2.15,2.2,2.2,0,0,0,1.72,1.09,7.55,7.55,0,0,1,3.26,1.43,5.2,5.2,0,0,0,2.33,1.06,1.78,1.78,0,0,1,1.36.47,2.92,2.92,0,0,1,.47,2.21c0,.18,0,.37,0,.56,0,1.23,1.28,2.51,2.41,3.64.52.53,1.07.29,2.12-.32a6,6,0,0,1,1.18-.6,1.06,1.06,0,0,1,.91.07c.57.35.7,1.2.84,2.1a6.3,6.3,0,0,0,.23,1.15l.05.12c.33.9.67,1.84.25,2.43a.93.93,0,0,1-.53.37l0,0a3.5,3.5,0,0,1,1.23,1.93,1,1,0,0,1-.29.87c-.49.48-1.38.39-2.42.3-.4,0-.82-.08-1.19-.08a.35.35,0,0,0-.14,0c-.12.18.2,1.15.37,1.67a8,8,0,0,1,.53,2.33c0,1.74-1.22,2.95-2.63,4.34l-.45.44c-1.32,1.32-3.25.36-4.8-.42a8.09,8.09,0,0,0-1.59-.67c-.08,0-.11,0-.15,0-.52.55-.39,3.37.08,5.48a13.59,13.59,0,0,1,3,.31l.77.16c1.13.22,1.34.31,2.92,1.71a30.11,30.11,0,0,0,5.14,3.57l.57.34a24.6,24.6,0,0,0,8.45,2.33,6.87,6.87,0,0,0,3.29-.89,3.67,3.67,0,0,1,4.41.81,2.28,2.28,0,0,1,.11,2.09c-.21.81-.3,1.25.26,1.66a13.31,13.31,0,0,0,2.15,1.16,8.43,8.43,0,0,1,2.71,1.66,2.18,2.18,0,0,1,.29,2.2c-.19.71-.16.8.1.93l.58.27c1.17.54,2.63,1.22,3,2.88a6.26,6.26,0,0,1,.09,2c0,.49-.06,1,.09,1.2a.6.6,0,0,0,.41.09c1,0,1.52-1.05,2-2,.15-.3.29-.59.44-.83l.27-.45c.39-.7.83-1.48,1.63-1.7a2,2,0,0,1,1.51.28,14.35,14.35,0,0,1,1.62,1.18c.66.54,1.41,1.15,1.64.92.71-.71,1.66-3.9,1.16-4.95a9.49,9.49,0,0,0-.58-1c-.64-1-1.25-2-.88-2.69a1.32,1.32,0,0,1,1.22-.61,4.23,4.23,0,0,1,2.49.69c.56.33.72.38,1,.21l.34-.22c.92-.63,2.07-1.4,3.52-.51a1.48,1.48,0,0,0,1.51.21c.31-.22.39-.79.21-1.55-.25-1.11,1.09-1.7,2.26-2.23a5.79,5.79,0,0,0,1.6-.89,13.31,13.31,0,0,1,1.59-1.41,5.68,5.68,0,0,0,1.05-1c.17-.2.14-.32-.16-.85a2,2,0,0,1-.14-2.27,12.52,12.52,0,0,1,2.05-2.42c.23-.23.45-.44.66-.67l.39-.43a8.55,8.55,0,0,1,4-2.87,5.9,5.9,0,0,1,5.52,1.36,12.74,12.74,0,0,0,5.25,2.32,5.88,5.88,0,0,0,.84,0c.82,0,1.74-.08,2,1.34s1,2,2,2a10.55,10.55,0,0,0,1.11,0,11.2,11.2,0,0,1,1.53,0c0-.33,0-.67,0-1,.06-1.44.12-2.92-1.07-4.11-1-1-2.6-2.44-4-3.69-1.12-1-2.09-1.88-2.61-2.39a7.94,7.94,0,0,1-2.46-4.4,7.13,7.13,0,0,0-.72-1.93,3.91,3.91,0,0,1-.59-2.26,3,3,0,0,1,.9-1.83,6.59,6.59,0,0,0,.9-1.27c.59-1.14.08-2.6-.23-3.47-.06-.17-.11-.31-.14-.43a2.55,2.55,0,0,1,.48-2.51,1.33,1.33,0,0,0,.33-.69c0-.19-.36-.53-.65-.81-.62-.6-1.47-1.41-.92-2.51a4,4,0,0,1,1.45-1.46c.56-.37.85-.58.85-1s-.39-.8-.71-1.09-.56-.51-.47-.88.45-.45.57-.49a.73.73,0,0,0,.48-.28c.15-.29-.07-.92-.3-1.58a12,12,0,0,1-.42-1.42,21.42,21.42,0,0,1-2.38-2.66,6.84,6.84,0,0,0-4.23-2.74,5.81,5.81,0,0,1-3.93-3.16c-.6-1.07-1.67-2-1.61-3.82s-.78-2.74-1.91-2.74a3,3,0,0,1-2.68-2.68c-.06-1.49-.18-2.32-1.55-2.21s-2.68.36-3.4,1.49a7.77,7.77,0,0,1-4.41,3,23.8,23.8,0,0,0-6.26,1.49,15.17,15.17,0,0,0-5.25,4.36c-.77,1.19-2,2.44-2.8,1.13s-.65-2.39-2.14-2.92-2.15-1.13-3-.24-2.15,1.91-2.8,1.13-1.55-3.34-3-4.53-4.47-1.19-5.85-1.19-3.69,1.43-4.7,2.44a28.1,28.1,0,0,1-2,2.28h0C372.46,83.87,370,84.13,368.46,84Z"/>
			<path class="area" id="region-18" d="M309,.51a14.48,14.48,0,0,0-.34,1.93,14.8,14.8,0,0,1-.74,3.43,3.77,3.77,0,0,1-.63,1.06c-.4.52-.61.83-.43,1.41s1.15,1.13,2,1.59A7.64,7.64,0,0,1,310.49,11a2.8,2.8,0,0,1,1,2.35,1.18,1.18,0,0,1-.82.84c-1,.31-1.54.64-1.54,1.54,0,1.4-.67,2.38-2.3,3.36a9.67,9.67,0,0,1-1.79.81A5,5,0,0,0,303.1,21a9.08,9.08,0,0,0-2.25,4.75c0,.91.65,1.46,1.34,2.05.2.18.42.36.61.56,1.15,1.15,1.32,3.86,1.32,5.38a4.3,4.3,0,0,1-1,3.26c-.13.17-.27.35-.41.56s-.07.83.23,1.55a5.29,5.29,0,0,1,.5,2,1.4,1.4,0,0,1-.78,1.46,1.85,1.85,0,0,1-1.89-.55.3.3,0,0,0-.38-.09c-.12.08-.18.32,0,.67s.26.52.41.81A8.16,8.16,0,0,1,302,47.21a3,3,0,0,1-1.85,2.63,4.92,4.92,0,0,0-1,.73c-.52.51-.46,1-.31,1.87a8,8,0,0,1,.14,1.27c0,.7.4.83,1.54,1l.6.1a1.43,1.43,0,0,1,1.18,1.28c.08.37.14.56.4.7s.46-.18.89-.84a2.75,2.75,0,0,1,.94-1,.86.86,0,0,1,1.13.27,1.72,1.72,0,0,1-.2,2.05c-.35.36-.68.89-.18,1.4a3.76,3.76,0,0,1,.85,2.19,3.32,3.32,0,0,1-.85,2.73,3.68,3.68,0,0,0-1.17,3.14,4,4,0,0,0,.51,1.42A2.75,2.75,0,0,1,305,70a.93.93,0,0,1-.52.55c-.75.35-1.43.93-.79,2.53a4.9,4.9,0,0,1-.13,4l-.12.35a3,3,0,0,1,.31.15,3,3,0,0,0,1.21.37c.7.06,1.06-.35,1.48-.81a2.88,2.88,0,0,1,1-.82c.77-.3,1.4.22,2.06.78a8,8,0,0,0,1.24.88,6.21,6.21,0,0,0,2.88.45c.51,0,1,0,1.62,0a8.78,8.78,0,0,1,2.41.51,12.44,12.44,0,0,0,2.06.55c1.53.27,1.63.09,2.07-.66.08-.15.18-.32.3-.5l.18-.29a2.82,2.82,0,0,1,2.51-1.74c1.11-.09,1.78.77,2.37,1.52a4.51,4.51,0,0,0,1,1c.35.24.64,0,1.34-.88a5.35,5.35,0,0,1,1-1c.22-.16.44-.35.68-.56.73-.63,1.55-1.35,2.53-1.16a1.51,1.51,0,0,1,1,.79,4.28,4.28,0,0,1,0,3.4c-.32.85.29,1.38,1.26,2.09a6.47,6.47,0,0,1,.77.61,7.12,7.12,0,0,1,1.14,1.48c.5.93.27,1.45,0,1.73-.05.06-.06.09-.05.13s.15.53,1.28,1.38l.28.21c1.17.87,2.77,2.06,3.15,3.4.3,1.11-.64,1.53-1.2,1.78-.15.07-.56.25-.56.33v0a3.67,3.67,0,0,0,1.35,0c.29,0,.59,0,.86,0a3.63,3.63,0,0,1,1.29.23,2.63,2.63,0,0,0,.95.18,7.72,7.72,0,0,0,2.54-1.44c.48-.34.93-.66,1.3-.87a3.4,3.4,0,0,1,3.33.07,3,3,0,0,1,.74-.57c.69-.4,1.44-.95,2.17-1.47,1.35-1,2.51-1.83,3.36-1.83a4.09,4.09,0,0,1,1.1.16,1.2,1.2,0,0,0,1.08-.08c.24-.12.26-.45.26-.92s0-.8.34-1a.79.79,0,0,1,.79,0,.73.73,0,0,0,.64,0,.34.34,0,0,0,.14-.3.78.78,0,0,1,.28-.65,1.15,1.15,0,0,1,1,0,3.47,3.47,0,0,0,.46.13,1.55,1.55,0,0,0,0-.21c.06-.43.17-1.23,1.08-1.35a3.3,3.3,0,0,1,1.55.16,5.33,5.33,0,0,0,1.06.23,5.83,5.83,0,0,0,3.4-.67,1.78,1.78,0,0,1-.49-.47c-1.37-1.85-1.43-3.64-2.62-4.53s-2.39.18-3.22-2.09-2.62-4.29-1-5.3,2-1,1.37-3.28-2.13-3.21-1.79-4.11c.47-1.25-.36-1.67-1.25-2.21-1.06-.63.47-2.2-.84-2.68-1.15-.42-2.5-1.67-1.25-2.33s2.86-2,1.67-2.68-2.56.66-3.94.66-2.26-2-2.38-3.22-1.19-3-2.21-3.4-3,.42-4.53,1.13-4.1,1.93-5,1.32c-1.13-.78-1.07-1.43-1.49-2.57a1.44,1.44,0,0,0-2.21-.71c-.71.41-1.31.47-2.74-.24s-2.62-1-3.1-.06-1.25,2.5-2.14,1.73-1.79-1.67-.6-2A2.57,2.57,0,0,0,334,43a2.52,2.52,0,0,0-1.49-2.33,2.23,2.23,0,0,1-1-2.74,4.13,4.13,0,0,0-.06-3.75c-.89-1.38-3.22-2.93-3.45-4.24s1.73-1.84,3.22-2.14,3.45.89,4.82-.6.9-3.57-.71-5-4.23-3-4.89-3.87a3.77,3.77,0,0,0-2.74-1.55c-1,0-.6-1.49-1.07-2.62s-.06-3.58-.06-5.19-2-3-2.57-3.16-1.73-1.85-2.74-2.86S319.35.06,317.51.12s-3.52,1.67-4.36,2.5-1.9.84-2.32-.65A2.23,2.23,0,0,0,308.06.56,3.51,3.51,0,0,1,309,.51Z"/>
			<path class="area" id="region-15" d="M253.06,241.34a11.8,11.8,0,0,1,0-2.59,3.84,3.84,0,0,0-.27-2.51,14,14,0,0,0-1.35-1.27c-1.75-1.53-3.56-3.11-2.77-4.21s2.38-1.59,4.63-2.1c2-.45,3.05-1.42,3.14-2.87a4.05,4.05,0,0,0-1.67-3.45,4.39,4.39,0,0,0-1.62-.46c-.87-.14-1.76-.28-1.91-1.09a3.54,3.54,0,0,1,.58-1.82c.3-.6.74-1.51.6-1.83,0,0,0-.07-.14-.11a2.52,2.52,0,0,0-1.49.05,6.52,6.52,0,0,1-3.09.07c-2.86-.57-3.66-1.82-4.15-3.93-.08-.33-.15-.63-.23-.91a5,5,0,0,1,.21-4.18c.92-1.78.71-2.69,0-3.65a8.22,8.22,0,0,1-.75-1.48,6.1,6.1,0,0,0-.56-1.12c-.18-.22-.26-.19-.35-.15a3,3,0,0,0-1,.85c-.47.52-1.17,1.31-1.95.63a2.78,2.78,0,0,1-.66-1c-.22-.45-.32-.66-1-.66a7.53,7.53,0,0,0-1.73.31,4.65,4.65,0,0,1-2.79.18,4.15,4.15,0,0,1-2.27-4,8.63,8.63,0,0,1,.21-1.2c.31-1.39.36-2-.45-2.36l-.19-.08c-1.55-.62-2.33-.94-2.33-3a10.18,10.18,0,0,1,.13-1.48c.13-.93.2-1.39-.5-2l-.63-.54a2.38,2.38,0,0,1-1.13-2.65,3.05,3.05,0,0,1,2.2-2.91c.27-.11.39-.43.53-.94-3.81-.1-7.43-1.17-7.93-2.38a3,3,0,0,0-2.3-1.82c-.29,0-.38,0-.57.76a1.86,1.86,0,0,1-1,1.47c-.72.28-1.19-.22-1.61-.65a2.59,2.59,0,0,0-2-1,1.58,1.58,0,0,0-1.29.42c-.35.45-.19,1.33,0,2a1.57,1.57,0,0,1-.28,1.38c-.75,1-2.49,1.1-3.46,1.1-2,0-2.4-.29-3.51-1.4-.38-.38-.78-.18-1.89.67a9.16,9.16,0,0,1-1.45,1c-1.69.87-3.36-.31-4.83-1.36l-.25-.17a12.68,12.68,0,0,1-1.06-.86c-1-.91-1.34-1.07-1.84-.57a4.35,4.35,0,0,0-.79,2.24,4.66,4.66,0,0,1-.91,2.44,7.43,7.43,0,0,1-3.67,1.37,3.44,3.44,0,0,0,.63.64c2,1.61,3.69,3.16,4.53,2.39s.36-2.45,1.31-2.15,1.91-.24,2.15,1.25.71,2.51,1.55,2.81-.18,1.66-.6,2.38-1,1.37.42,2,.53,1.13-.24,2.08-.6,1.55-.6,2.92a8,8,0,0,1-1.37,3.58,3.33,3.33,0,0,0-.42,3.28c.6,1.61,1.55,2.92,2.39,2.92s2.62.59,2.92,1.91a5.79,5.79,0,0,0,1.55,3.27c1.07,1.14,2.62,1,2.86.06s1.67-2.56,2.56-.89.48,2.21.06,3-1.13,2.32-.53,3.7-1.67,1.43-2.21,2.56-.24,2,1.07,2,2.21-1.61,2.39-.36-.54,2.56-.6,3.81.3,1.85,1.55,2.62,2,1,2.74,2.27,1.79.66,3.16,1,1.91.24,3.1,2.51.42,3.57.06,4.71-1,2-.06,2.92.3,1.55-.47,1.9-2.93.48-1.26,2,2.45.84,3,1.61.36,2.27,1.91,2.38,2.33.84,2.15,1.2a2.49,2.49,0,0,1-2.33,1.13c-1.49,0-3.46-.54-4.11.18s-.84,2.5-1.85,1.13-.77-3.22-1.85-3.93-1.25-2.92-1.84-1.73-1,2-1.67,2-.24,1.14-.9,2-1.61.24-2.32-.77-1.37-.12-1.61-1.49.12-3.16-.9-3-1.13,1.78-1.78,2.32-1.08.18-2.09-.89-1.55.53-1.43,1.9-1.67,2.09-2.21,2.57-1.84-.24-1-1.49a7.7,7.7,0,0,0,1.49-5.07c-.3-1.79-1.61-1.25-2.62-.83s-4.83,1.84-5.55,2.5-1.78,1-1,2.8a9,9,0,0,1,.72,4.41,4.31,4.31,0,0,0,1.9,3.4c.78.6.36,2-.59,3.22s-2.56,1-1.25,3.34.41,2.62-1.55,3.27-4,.24-4.41,2.45.17,4.11-.84,4.11-2.14-.3-1.91.9,0,1.49-1.19,1.49-1.91.41-2,1.55-1.72,0-2.38,1.13-.18,1.43.54,2.8,1,1.91.35,3.34-.71,2.56-2.32,2.2-3.76-1.13-4.77-.95-3,1.55-2.32,2.86,2.14.54,2.2,2-.3,3.1,2.21,4.59,4.53,1.67,6.08,2.62,2.86,1.91,4.59,1.67,1.61-1.67,1.84-3.22,1.5-4.47,1.91-3.4-.06,3.22.78,3.58a2.61,2.61,0,0,0,3-.72,7.75,7.75,0,0,1,4-2.32,5.16,5.16,0,0,0,3-1.79,4.93,4.93,0,0,1,4-1c1.44.18,2.32-.39,3.76.35a18.15,18.15,0,0,1,3.7,2.09c1.31,1.07,2.08,4.29,2,5.42s-.24,2.12.09,2.21,1.49-1.61,1.61-1.85a18.71,18.71,0,0,0,1.31-4.35c0-1.1.09-4.8-.47-4.92s-3.19,1.31-3.49.18a2.62,2.62,0,0,1,.71-2.53c.45-.36,2.3-1.94,2.27-2.68s-1.1.32-1.73,1-1.55,1.58-1.88.72a11.94,11.94,0,0,1-.09-4.77c.3-1.34,1-1.61.87-3.16s-.27-2,.38-2.83,1.47-.12,1.35,1-.84,3.13-.12,3.9,1.73,2.87,2.53,2.95,1.34-.68,2.29-1.22,2.15-1.16,1.79-1.55-1.93-.35-2.26-.71-.9-1.85-.33-2.18,2.15.57,2.89.51,1-2.36,1.13-3.1.72-1.7,1.58-1.64,1.2,1.4,2,1.22.51-1.34,1-2.32,1.34,1.22,1.14,1.7-2,1.25-1.67,1.61,2-1,2.32-1.29a25.49,25.49,0,0,0,3.46-3.93,15.71,15.71,0,0,1,2.77-4,17.36,17.36,0,0,0,2.65-2.06c.51-.66,1.25-2.24.72-2.12s-1.4,1.2-1.82.75a5.63,5.63,0,0,1-1.52-2.71,2.22,2.22,0,0,0-1.25-1.82,8.29,8.29,0,0,0-2.48-1.37,4.29,4.29,0,0,1-2.47-1.85c-.36-.72-1.76-1.82-1.55-2.95s-.06-1.46,1.43-1.79,2.18-.68,2.27.24-.33,2,.62,2.15,1.16-1.05,1.49-.63,0,1.79.9,2.41,2.41.9,2.47,1.49-.51,1.11-.21,2.06a5.44,5.44,0,0,0,1.94,2.3c.71.56,0,1.07.68,1.22s.69-.66,1.35-1.25,1.58-2.87,2.17-3.25a5.52,5.52,0,0,0,1.88-2.95c0-.87-.84-1.82.45-2.36s1.66-.68,2.08-1.94a15.84,15.84,0,0,0,.24-4c.06-1-.54-2.23.42-2.5s3.31-.66,4.5-1.64a4.2,4.2,0,0,1,4-1.25c.81.11,1.56.19,2.29.23l-.44,0A20.62,20.62,0,0,0,253.06,241.34Z"/>
			<path class="area" id="region-14" d="M283,236.73a6.49,6.49,0,0,1,.36-.92c.56-1.12,1.7-.67,2.31-.42a2.9,2.9,0,0,0,.55.17,1.52,1.52,0,0,0,1.32-1.55.93.93,0,0,1,.37-.86c.43-.27,1,0,1.56.29A3.87,3.87,0,0,0,291,234a4.11,4.11,0,0,0,1.86-.76,4.17,4.17,0,0,1,2-.78,3,3,0,0,1,1.83,1,3.08,3.08,0,0,0,1.86,1.05c2.16,0,4.19-.38,4.82-.88a6.37,6.37,0,0,0-1.16-.72,9.11,9.11,0,0,1-2-1.32c-.42-.42-.38-.74-.29-.94.29-.58,1.24-.52,3.19-.27.36,0,.7.09.83.09,1.45,0,2-.53,2.09-.7l-.45-.37c-.81-.65-1.43-1.19-1.46-1.76a.78.78,0,0,1,.23-.6c.36-.36.95-.29,1.59-.22.4,0,1,.11,1.2-.05s.07-.13.07-.26c0-.69-1.24-1.36-2.33-2a9.45,9.45,0,0,1-2.14-1.41,1.42,1.42,0,0,1-.48-1.13c.07-.84,1-1.49,1.78-2.06a7.06,7.06,0,0,0,.85-.66,5.5,5.5,0,0,1,2.7-1.1,6.49,6.49,0,0,0,1.22-.33c.22-.11.46-.24.5-.35s-.11-.65-.5-1.38c-.75-1.41-.75-4.05-.75-5.05,0-.28-.57-.6-1-.84s-1.16-.66-1.16-1.24a.89.89,0,0,1,.42-.78,2.75,2.75,0,0,1,2.34.27l.07,0a6.93,6.93,0,0,0-.22-2,11.56,11.56,0,0,0-.46-1.65,8.55,8.55,0,0,1-.52-2.28,8.55,8.55,0,0,1-1.7-.84,5.44,5.44,0,0,1-2-3.72,2.12,2.12,0,0,1,.35-1.71,3.82,3.82,0,0,1,1.56-.71,4.13,4.13,0,0,0,1-.36h0c-.69-.93-.66-2.77-.64-4.25,0-.23,0-.46,0-.66s0-.61,0-.85c.05-.78.07-1.07-.48-1.62-.88-.88-.45-2.23,0-3.53l.2-.6a7.34,7.34,0,0,1-.74-.27,9.83,9.83,0,0,0-1.21-.42c-.83-.22-1.12.15-1.67,1a5.62,5.62,0,0,1-1,1.24c-1.31,1.13-2,1.07-3,.52a1.45,1.45,0,0,0-1.28-.1,1.26,1.26,0,0,0-.72.86,2.2,2.2,0,0,0,.18,1.28c.17.53.43,1.32-.36,1.72-.33.16-.34.41-.21,1.42,0,.28.07.6.09,1,.13,1.88-.89,2-2.06,2.12a13,13,0,0,0-1.86.32,5,5,0,0,1-4.49-.54c-.25-.14-.51-.28-.82-.42-1.41-.69-2.53.26-3.52,1.1l-.42.35c-.64.51-2.57,2.06-3.77.86a5.51,5.51,0,0,0-2.92-1.7,4.3,4.3,0,0,0-1.25.11,4.47,4.47,0,0,1-3.22-.32,1.44,1.44,0,0,1-.84-1,2.13,2.13,0,0,1,.67-1.65,2.28,2.28,0,0,0,.56-1c0-.7-.86-1.43-1.77-2.21-.27-.24-.56-.48-.84-.74a2.88,2.88,0,0,1-.85-3.49c0-.11.08-.23.12-.34.28-.71.48-1.22-.55-1.84a2.21,2.21,0,0,0-3,.26c-1.9,1.69-2.48,1.47-2.7,1.39a.76.76,0,0,1-.48-.68c-.17-1.47-.9-1.64-1.43-1.64a7.44,7.44,0,0,0-1.43.2,6,6,0,0,1-3.19,0,4.49,4.49,0,0,1-2.51-2.67c-.13-.27-.25-.53-.38-.75-.49-.81-2.35-.65-3.85-.51a3.55,3.55,0,0,0-2.06,1.11,5,5,0,0,1-1.69,1.1,5,5,0,0,1-3.32-.39c-.53-.19-1.08-.38-1.71-.54-1.12-.27-1.3,0-1.65.37a2.66,2.66,0,0,1-.9.79c-1.19.63-2,.34-3.3-.13l-.28-.1a4.9,4.9,0,0,0-3.9-.11c-.62.24-.8.77-1,1.6-.18.67-.38,1.43-1.11,1.73a2.19,2.19,0,0,0-1.65,2.19c-.14,1.06,0,1.21.81,1.85l.66.57a2.69,2.69,0,0,1,.79,2.83,8.68,8.68,0,0,0-.12,1.35c0,1.45.27,1.56,1.76,2.16l.19.08c1.6.65,1.25,2.23,1,3.38a10.3,10.3,0,0,0-.19,1.08,3.29,3.29,0,0,0,1.69,3.13,4,4,0,0,0,2.25-.2,7.83,7.83,0,0,1,2-.34,1.7,1.7,0,0,1,1.78,1.16,1.87,1.87,0,0,0,.44.66s.06,0,.06,0,.45-.36.64-.58a3.63,3.63,0,0,1,1.35-1.1c1.13-.43,1.64.79,2,1.77a8.43,8.43,0,0,0,.66,1.31c1,1.41,1,2.69,0,4.57-.7,1.37-.5,2.14-.14,3.54.07.3.15.6.23.94.43,1.86,1,2.77,3.45,3.25a5.67,5.67,0,0,0,2.71-.06,3.28,3.28,0,0,1,2,0,1.09,1.09,0,0,1,.7.61c.29.69-.17,1.65-.63,2.58a4.11,4.11,0,0,0-.49,1.27c0,.17.74.29,1.16.35a5,5,0,0,1,2,.6,4.93,4.93,0,0,1,2.07,4.26c-.08,1.3-.82,3-3.83,3.68-2.3.52-3.44.82-4.1,1.75-.06.07,0,.4.58,1.07a21.45,21.45,0,0,0,2.05,2,15,15,0,0,1,1.46,1.38c.63.78.55,1.93.46,3.14a10.52,10.52,0,0,0,0,2.38,23.23,23.23,0,0,1,.23,3.72l-.42,0c1.09.06,2.11.08,3.16.11a5.44,5.44,0,0,0,3.9-1,7.06,7.06,0,0,0,2.09-3.4c0-.89-1.2-1.49-1.23-2.41s1.05-.09,1.43.15,1.17-.45,1.79-.9,1.08-2.29,1.34-1.25-.71,2.06-1.31,3.16-2.56,3.1-1.85,4.23,1.47,2,2.6,1.23,1.19-2.15,2.35-1.67,2.68,1.43,3.91,1.49a3.4,3.4,0,0,0,3.3-2.15c.36-1.37-.71-3.81-1.13-4.59s-.74-1.49.75-2.65,1.93-1.85,1.73-3.1a3.77,3.77,0,0,0-1.85-2.62c-.81-.45-2.27-1.23-2.3-1.85a4.57,4.57,0,0,1,.6-2.24,1.35,1.35,0,0,0-.45-1.84,1.87,1.87,0,0,1-.83-1.46c0-.42.27-1.76-.33-2.06s-2.68-.66-2.3-1.4,1-.3,1.44,0,1.31.27,1.87,1,.12,1.7.51,2.48,1.34.71,1.52,1.81-.66,1.7-.48,2.6,1.14.59,1.94,1.31,2.15,2.83,2,4.14a6.16,6.16,0,0,1-1.25,3.16c-.67.9-1.42,1.93-.92,3h6C282.49,238.09,282.68,237.62,283,236.73Z"/>
			<path class="area" id="region-9" d="M74.65,191a24.18,24.18,0,0,0,1.8-3.26c.12-.35.25-.68.38-1a3.38,3.38,0,0,0,.43-2.18c-.12-.37-.21-.77-.32-1.19a17.7,17.7,0,0,0-.91-3c-.7-1.65.3-3.24.89-4.19.12-.2.23-.37.3-.51.5-1,1.85-1.54,3.56-2.22a3.63,3.63,0,0,0,2-3.34c0-1.2.9-1.74,1.69-2.21a6.49,6.49,0,0,0,1.18-.84,12.41,12.41,0,0,1,2.86-1.86,22.93,22.93,0,0,0,2.32-1.38,3,3,0,0,1,3.23-.35,3.86,3.86,0,0,0,.76.23c1.15.22,1.68-.74,1.92-1.58a12.93,12.93,0,0,0-.46-6.28c-.84-2.28.41-2.95,2.15-3.87l.06,0c0-2-.34-3.56-.82-4a6.47,6.47,0,0,0-1.63-1,8.39,8.39,0,0,1-2-1.3,3.52,3.52,0,0,0-1.44-.89,1.12,1.12,0,0,0-1.12.18,8.21,8.21,0,0,0-.82,1.21c-.72,1.21-1.2,2-1.84,1.9a.86.86,0,0,1-.71-.63,2.53,2.53,0,0,1,.18-2c.27-.67.37-1-.08-1.43a4,4,0,0,0-1.56-.88c-.72-.28-1.47-.56-1.72-1.51a5.41,5.41,0,0,1-.15-1.05c-.07-.84-.1-1.23-1.23-1.47-1.83-.39-3.93-1-3.93-2.48a3.8,3.8,0,0,1,1.74-2.88c-.38-.21-1-.48-1.41-.66l-.63-.28a2.13,2.13,0,0,1-1.22-1.33,2.74,2.74,0,0,1,.43-2.22l.23-.34c.54-.8.79-1.16.09-2.12a3.92,3.92,0,0,1-.85-3.06c0-.24,0-.51,0-.81a5.17,5.17,0,0,0-.73-2.54c-.19-.37-.38-.75-.56-1.2a9.13,9.13,0,0,1-.71-3c-3.84-1.48-5.74-1.93-7-1.66-.93.2-1,.71-1,2.17v.2a1.45,1.45,0,0,1-1,1.53c-.28.12-.28.13-.28.29s.16.38.43.65a1.83,1.83,0,0,1,.46,2.46,7.39,7.39,0,0,1-1,1.46,2.35,2.35,0,0,0-.8,1.78c0,.61.16.66.76.84a3.39,3.39,0,0,1,1.61.87,1.23,1.23,0,0,1,.36,1.51c-.41.79-1.84,1.19-3.32.93a4.23,4.23,0,0,0-2.69.35,12.79,12.79,0,0,1-1.3.45,2.22,2.22,0,0,1-2.13-.36,2.05,2.05,0,0,0-1.3-.43c-.53,0-.58.16-.7.59A1.32,1.32,0,0,1,55.74,131a2.35,2.35,0,0,1-1.45-.46c-.33-.22-.49-.32-1.25.07-1.19.63-2.44.24-3.65-.13a7.08,7.08,0,0,0-2-.42c-.82,0-1,.52-1.25,1.9a9.93,9.93,0,0,1-.43,1.73,4.58,4.58,0,0,1-1.63,2.1,6.3,6.3,0,0,0-1.27,1.3,2.43,2.43,0,0,0-.28,2.68c.08.23.15.46.22.73.41,1.49-.16,2.74-.82,4.19l-.06.14a4.43,4.43,0,0,1,.63.53,7.87,7.87,0,0,1,1.43,2.11c.5,1,.77,1.41,1.43,1.41,1.56,0,2,.93,2.46,1.84.11.22.23.45.36.68a8.94,8.94,0,0,1,.59,1.34c.39,1,.85,2.23,1.75,2.59,1.57.61,3,.65,3.51.1a2.38,2.38,0,0,1,2.4-.64,1.44,1.44,0,0,1,.86,1.47,7.83,7.83,0,0,1-.53,2.12c-.4,1.17-.89,2.63-.5,3.29a.86.86,0,0,0,.66.38,4.6,4.6,0,0,0,2.44-.25c.85-.27,1.73-.55,2.52.73a21.52,21.52,0,0,0,3.49,3.79c.36.33.67.62.9.86.81.8.58,1.91.36,3a7.92,7.92,0,0,0-.23,1.59c0,.7.39,1,1,1.53a3.54,3.54,0,0,1,1.18,1.32,3.33,3.33,0,0,1-.63,4.08,14.38,14.38,0,0,0-1.68,2h0a5.18,5.18,0,0,1,.68.51c2,1.67,1.85,2.44,2.38,3.63s2.51,1.73,3.46,2.33.6,1.61,1.25,3.16a2.53,2.53,0,0,0,.78,1,1.07,1.07,0,0,1-.16-.14Z"/>
			<path class="area" id="region-16" d="M338.88,150.6a10.39,10.39,0,0,0,0-4,4.26,4.26,0,0,0-.56-1.52,2,2,0,0,1,0-2.62,27,27,0,0,1,3.87-4.24,25.9,25.9,0,0,1,5.95-3.66,6.51,6.51,0,0,0,2.59-1.7,8.37,8.37,0,0,1,.62-.57c.8-.64,1.79-.6,3.15-.54l.68,0h1.2c-.31-1.57-.79-5.08.19-6.1a1,1,0,0,1,1-.3,8.58,8.58,0,0,1,1.82.75c1.36.68,2.9,1.46,3.77.59l.45-.45C365,125,366,124,366,122.62a8,8,0,0,0-.48-2.06c-.35-1.07-.63-1.92-.24-2.47a1,1,0,0,1,.86-.38c.42,0,.85,0,1.27.08.61,0,1.52.14,1.71-.05,0,0,0-.11,0-.16,0-.44-.6-1-1-1.36s-.75-.74-.59-1.14a.75.75,0,0,1,.74-.37c.16,0,.23,0,.24,0,.15-.21-.19-1.12-.36-1.61l-.05-.13a7,7,0,0,1-.28-1.32c-.08-.53-.2-1.33-.41-1.46,0,0-.12,0-.17,0a5.13,5.13,0,0,0-1,.52c-.9.53-2.13,1.26-3.2.18-1.26-1.25-2.67-2.67-2.67-4.27,0-.2,0-.4,0-.59,0-.67,0-1.29-.22-1.55a1,1,0,0,0-.72-.21,5.62,5.62,0,0,1-2.81-1.2,6.85,6.85,0,0,0-2.86-1.29,3.1,3.1,0,0,1-2.4-1.51,3.36,3.36,0,0,1-.31-3,2.43,2.43,0,0,1,.71-.88,2.42,2.42,0,0,0,1-2,3.75,3.75,0,0,0-.42-1.57,2.56,2.56,0,0,1-.34-1.23,2.5,2.5,0,0,0-2.5-.11c-.34.19-.77.5-1.23.83-1.11.79-2.26,1.61-3.06,1.61a3.45,3.45,0,0,1-1.23-.23,2.79,2.79,0,0,0-1-.19c-.23,0-.5,0-.78,0-.82.07-1.6.14-2-.26a.92.92,0,0,1-.28-.68c0-.66.6-.93,1.09-1.15.7-.31.77-.43.69-.72-.29-1-1.81-2.18-2.82-2.92a2.55,2.55,0,0,0-.28-.21c-1.09-.82-1.59-1.45-1.64-2a1,1,0,0,1,.32-.82c.09-.09,0-.35-.14-.68a6.09,6.09,0,0,0-1-1.26,7.21,7.21,0,0,0-.66-.53c-.86-.62-2.15-1.57-1.57-3.13a3.49,3.49,0,0,0,0-2.64.7.7,0,0,0-.43-.36c-.55-.1-1.14.42-1.78,1-.24.2-.48.42-.73.6a5,5,0,0,0-.78.84c-.61.76-1.45,1.8-2.54,1.07a5.39,5.39,0,0,1-1.19-1.24c-.61-.76-1-1.23-1.6-1.18-1,.08-1.23.4-1.82,1.32-.06.1-.12.2-.19.3s-.19.32-.28.47c-.61,1-1.05,1.44-3,1.09a13.28,13.28,0,0,1-2.18-.58,7.79,7.79,0,0,0-2.19-.47c-.56,0-1.07,0-1.57,0a6.87,6.87,0,0,1-3.28-.55,7.84,7.84,0,0,1-1.4-1c-.55-.45-.9-.73-1.17-.62a2,2,0,0,0-.66.58,2.63,2.63,0,0,1-2.22,1.11,3.89,3.89,0,0,1-1.54-.47c-.4-.21-.47-.24-.74-.06a3.71,3.71,0,0,0-.85,1.1,6.33,6.33,0,0,1-1.33,1.7c-.29.25-.62.61-1,1-1.09,1.18-2.44,2.64-4.13,3a15.85,15.85,0,0,1-6.25.25,5.77,5.77,0,0,1-1.94-1c-.42-.29-.87-.59-1.05-.49a3.06,3.06,0,0,1-2.7-.18c-.29-.12-.94.6-1.25.95l-.34.37c-.08.07-.16.17-.25.26a2.82,2.82,0,0,1-3.38,1.09c-.57,1.28-1.29,3.58-1.55,4.41a11.66,11.66,0,0,1,1,1.21,13.29,13.29,0,0,0,.93,1.11c.61.6,1,.45,1.77.12l.59-.23a1.23,1.23,0,0,1,1.53.45,1.75,1.75,0,0,1-.38,2.12c-.41.41-.41.68-.36.89a3.45,3.45,0,0,0,1,1.36A13.36,13.36,0,0,0,284,99a8.43,8.43,0,0,1,2.23,2.32c.86,1.4,0,2.69-.79,3.94a13.14,13.14,0,0,0-.87,1.49c-.19.4-.1.59-.07.65.27.55,1.64.85,2.85,1.13l1.25.29c1.66.45,1.91,1.82,2.09,2.82a2.57,2.57,0,0,0,.42,1.24,2,2,0,0,0,1.19.39c.65.08,1.63.19,1.63,1.37,0,.33.27.52.88.87a2.62,2.62,0,0,1,1.69,2.32,3.6,3.6,0,0,1-1.72,3.12h0c-.17.79-.26,1.58.47,2,1.21.68,2.37.72,2.77,1.39s.18,1.34,1.12,1.88,1.16.36,1.43,1.56a3.65,3.65,0,0,0,2.06,2.51c.71.18.27.85,1.52,2.05S306.37,134,307,135s1.16,2.91,2.32,3.26,4.16.54,5.14.76a5,5,0,0,1,2.5,1.61c.9.9,2.55,1,3.67,1.66s2.77,2.28,3.8,2a2.72,2.72,0,0,1,2.95.5c1.39,1,2.33,1.92,3.62,1.92s1.52-1,2.46-1.25,1.16,1,.81,1.65-.59,1.61.31,2,2.81.67,3.4,1.43a5.87,5.87,0,0,0,.79.81l-.33-.3A.89.89,0,0,0,338.88,150.6Z"/>
			<path class="area" id="region-2" d="M190.74,183.39a4,4,0,0,0,.67-2,4.86,4.86,0,0,1,1-2.71c1.14-1.14,2.16-.26,3.05.52a11.5,11.5,0,0,0,1,.8l.26.18c1.32.94,2.69,1.91,3.91,1.29a9.09,9.09,0,0,0,1.31-.88c1-.74,2.07-1.58,3.06-.59s1.14,1.13,2.88,1.13a3.89,3.89,0,0,0,2.76-.75.69.69,0,0,0,.11-.62,3.23,3.23,0,0,1,.21-2.72,2.33,2.33,0,0,1,1.87-.75,8.43,8.43,0,0,1-.72-3c0-1.47,1.33-3.37,2.51-5.05.92-1.31,2-1.54,2.65-1.33a1.19,1.19,0,0,1,.86,1.18c0,.23,0,1.39.54,1.39,0,0,.35-.07,1.35-1.14.42-.46.88-1,1.31-1.53a9.41,9.41,0,0,1-1,.05,7.35,7.35,0,0,1-1.76-.21c-.24,0-1-.22-1.07-.79s.58-1.13,1.26-1.63a5.1,5.1,0,0,0,.6-.46c.53-.53.77-.77-.07-2.14a4,4,0,0,1-.64-2.07,1.4,1.4,0,0,0-.42-1.1c-.24-.24-.52-.46-.79-.68-.77-.61-1.64-1.3-1.47-2.52a1.18,1.18,0,0,0-.21-1,2.19,2.19,0,0,0-1.66-.51c-1.31,0-1.43-1.12-1.53-1.93a2.63,2.63,0,0,0-.54-1.64,1.92,1.92,0,0,1-.3-2.41,1.29,1.29,0,0,0,.19-.73c0-.11-.45-.15-.7-.17-.59-.06-1.57-.15-1.57-1.2a3,3,0,0,1,.49-1.48c.07-.12.15-.27.19-.36a.32.32,0,0,0-.13-.05,2.67,2.67,0,0,1-1.66-1.62,2.07,2.07,0,0,1,.24-1.87,11.67,11.67,0,0,1,1.33-1.55,14,14,0,0,0,1.8-2.14c.83-1.27-.09-2.34-1.47-3.73l-3.73-3.72a2.3,2.3,0,0,1-.6-2.49,1.48,1.48,0,0,1,1.36-1,.56.56,0,0,0,.52-.38.8.8,0,0,0-.14-.86c-1-1-1.1-2-.29-2.82.17-.18.23-.33.06-.65a6.57,6.57,0,0,0-1.1-1.29,1.81,1.81,0,0,1-.33-2.27,2.17,2.17,0,0,0,.2-.73c0-.07,0-.08-.05-.11-.27-.18-1.33-.2-3.15.52l-1.33.54a14.31,14.31,0,0,1-3.46,1.11s-4.34.68-5.52-.5a5.11,5.11,0,0,1-1.11-5c.33-1-.16-2.59-.59-4a10.69,10.69,0,0,1-.62-2.83c0-.21,0-.49-.2-.55-.4-.17-1.53.36-2.67,1.5a6.21,6.21,0,0,1-5.07,1.82c-.85,0-1.62-.07-2.37-.13s-1.45-.12-2.2-.12a1.68,1.68,0,0,0-1.17.62,2,2,0,0,1-2.67.45c-1.56-.83-3-.48-4.59-.08l-.48.12a20,20,0,0,1-5.07.1c-.59,0-1.15-.07-1.63-.08a3,3,0,0,1-2.08,2.41c-.7.23-.78.4-.78.43s0,.2.48.72a3.15,3.15,0,0,1,1.06,1.74,2.1,2.1,0,0,1-.77,1.79c-.86.87-.82,1.19-.29,2.06a1,1,0,0,1,.14.87c-.16.42-.63.55-1,.67s-.66.19-.7.35.1.38.5.79a4.15,4.15,0,0,1,1.38,3.71,2.21,2.21,0,0,0,.55,2c1.21,1.21,1.85,2,1,3.49a2.9,2.9,0,0,0-.2,2.62,2.79,2.79,0,0,1-.16,2.31,1.49,1.49,0,0,1-1.28.57,8,8,0,0,0-1.31.17c-1,.19-2.06.38-2.73-.3-1-1-1.48-1.2-2-.71a4.15,4.15,0,0,1-3.22,1.19c-.2,0-.27.07-.43.74a3.21,3.21,0,0,1-.73,1.57,5.25,5.25,0,0,1-.78.6,1.67,1.67,0,0,0-.93,2.08,12.16,12.16,0,0,1,.05,3.39c-.05.57-.11,1.15-.11,1.84,0,.42,0,.77,0,1.09,0,1.17,0,1.37.57,1.72a1.06,1.06,0,0,1,.6.7c.09.46-.2.84-.52,1.25a3.44,3.44,0,0,0-.68,1.2l-.86-.21a4.25,4.25,0,0,1,.83-1.54,2.36,2.36,0,0,0,.35-.52l-.16-.11c-1.1-.62-1.07-1.38-1-2.53,0-.3,0-.65,0-1.05a18,18,0,0,1,.11-1.92,10.91,10.91,0,0,0,0-3.16,2.55,2.55,0,0,1,1.32-3,4.56,4.56,0,0,0,.64-.5,2.28,2.28,0,0,0,.5-1.14c.15-.6.35-1.43,1.3-1.43a3.21,3.21,0,0,0,2.58-.92c1.27-1.26,2.55,0,3.24.71.34.34,1.12.2,1.94.05a8.31,8.31,0,0,1,1.47-.18c.41,0,.53-.16.57-.22a1.92,1.92,0,0,0,0-1.52,3.76,3.76,0,0,1,.28-3.3c.49-.89.39-1.16-.88-2.43a3.06,3.06,0,0,1-.8-2.67,4.06,4.06,0,0,0-.13-1.58,4,4,0,0,0-1-1.46c-.44-.46-.91-.94-.72-1.64s.84-.84,1.32-1a3.11,3.11,0,0,0,.43-.14l0-.07c-.78-1.29-.68-2,.42-3.16.52-.51.54-.84.51-1a2.42,2.42,0,0,0-.81-1.23c-.37-.37-.86-.95-.71-1.56s.77-.87,1.36-1.07a2.11,2.11,0,0,0,1.47-1.6,12.24,12.24,0,0,1-6.09-3.35,5.33,5.33,0,0,1-1.76-4.64,4.3,4.3,0,0,0-.19-1.32,1.34,1.34,0,0,1,.38-1.56,2.86,2.86,0,0,1,1.21-.7,2.37,2.37,0,0,0,1-.62c.73-.72,1.06-2.65.82-4.7a6.13,6.13,0,0,0-1.82-3.68h0a2.81,2.81,0,0,0-.47.36,2.52,2.52,0,0,1-1.65.84c-1.09,0-1.68-1.23-2.25-2.42a13.09,13.09,0,0,0-.64-1.24A2.16,2.16,0,0,0,148.91,86a9.16,9.16,0,0,1-2-1.13,3.08,3.08,0,0,1-1.49-2.17,3,3,0,0,1,1.06-2.2,1.52,1.52,0,0,0,.54-1.32,2.81,2.81,0,0,0-.91-1.55,2.52,2.52,0,0,1-.79-3v0c-1.46-.44-2.6.53-3.57,1.5a2.41,2.41,0,0,1-3.12.68,1.53,1.53,0,0,0-1.21-.05,3.06,3.06,0,0,0-1.68,1.68A2.72,2.72,0,0,1,134,80a5.28,5.28,0,0,0-2.1,1.37,19.62,19.62,0,0,0-2.48,3.16,15.7,15.7,0,0,1-1.9,2.47,2.58,2.58,0,0,1-2.72.8,2.24,2.24,0,0,0-1.09,0c-.41.11-.71.65-1,1.27a4.18,4.18,0,0,1-2.25,2.28,1.62,1.62,0,0,1-1.27,0,1.17,1.17,0,0,0-.49.33,1,1,0,0,0,.49.31,1,1,0,0,1,.7.88,1.77,1.77,0,0,1-.91,1.52,1,1,0,0,0-.53.69,1.08,1.08,0,0,0,.42.86,1.39,1.39,0,0,1,.48,1c0,.58-.55,1-1.09,1.39a7.36,7.36,0,0,0-.75.63l-.45.42c-1,.87-1.64,1.5-.49,3,1.82,2.32,2,6.68,2,8.44,0,2.23-.25,2.77-1.85,5.16s-1.6,3.11-.84,4.24a9.55,9.55,0,0,1,1.76,5.46c0,2.06,0,3.19-1,4.68-.37.56-1.14,1.92-.48,2.58a1.25,1.25,0,0,1,0,1.58c-.26.5-.26.6-.12.73.93.94.61,1.86.26,2.83l0,.12c-.37,1.05-.32,1.63.19,2.14a.76.76,0,0,1,.26.66c-.06.4-.43.6-.81.82-.68.37-.91.58-.81,1a3.85,3.85,0,0,0,.39,1,3.08,3.08,0,0,1,.39,1.79,5.84,5.84,0,0,1-.09,1.11.92.92,0,0,0,0,.2,4.31,4.31,0,0,0,.57.62,1.51,1.51,0,0,1,.55,1,1.19,1.19,0,0,1-.48.82,1.26,1.26,0,0,0-.48.71q0,.23-.09.42a3.1,3.1,0,0,0,.06,2.21,10.43,10.43,0,0,0,1.07,1.7,17.23,17.23,0,0,1,1,1.58,15.8,15.8,0,0,1,1.58,3.92l.62-.11a2.46,2.46,0,0,1,1.79.14,1.94,1.94,0,0,1,1,1.39,3.75,3.75,0,0,0,1.46,2.15,2.5,2.5,0,0,0,.4.25,6.77,6.77,0,0,0-.08-.76,2.92,2.92,0,0,1,0-1.51.74.74,0,0,1,.48-.43,1.45,1.45,0,0,1,1.13.43c.1.07.24.18.36.25a7.6,7.6,0,0,0-.54-.81c-.59-.81-1.26-1.72-.63-2.35a.75.75,0,0,1,.57-.22c.54,0,1,.53,1.75,1.32l0-.1c-.33-.82-.68-1.66-.36-2.3a.68.68,0,0,1,.6-.43h0c.5,0,.82.54,1.26,1.29.14.23.28.47.43.69a2,2,0,0,1,.32-1.43,1,1,0,0,1,1.12-.25,1.55,1.55,0,0,1,.83,1.51c0,1.24.08,1.38,1,1.65.2.05.32,0,.73-.88.25-.56.53-1.2,1.12-1.42.84-.32,1.43.25,1.89.7a3.12,3.12,0,0,0,.81.63c.67.29,1.62-.32,2.29-1s1.33-.1,1.77.28a2.4,2.4,0,0,0,1.06.66h.13a2.29,2.29,0,0,0,0-.56,1.65,1.65,0,0,1,.32-1.28.93.93,0,0,1,.69-.3c.59,0,1.12.53,1.62,1l.09.1.08.06s.3-.17.67-1.1a24.52,24.52,0,0,0,.88-4l.88.15a24.21,24.21,0,0,1-.93,4.18c-.4,1-.83,1.53-1.33,1.63a.92.92,0,0,1-.88-.3l-.09-.09c-.29-.29-.77-.77-1-.77a.08.08,0,0,0-.06,0,1.69,1.69,0,0,0-.06.64,1.53,1.53,0,0,1-.35,1.27,1,1,0,0,1-.88.17,3.22,3.22,0,0,1-1.48-.87,1.91,1.91,0,0,0-.49-.36l-.06,0a4.09,4.09,0,0,1-2.54,1.33,1.71,1.71,0,0,1-.73-.15,3.6,3.6,0,0,1-1.08-.81c-.47-.45-.67-.61-1-.51s-.44.55-.62,1c-.3.67-.75,1.68-1.79,1.36-1.47-.44-1.62-1.1-1.62-2.5,0-.42-.17-.64-.28-.69s-.06,0-.14.06a2.75,2.75,0,0,0-.06,1c0,.55,0,1-.37,1.21s-.69-.16-.8-.26a7.25,7.25,0,0,1-.93-1.33c-.09-.16-.21-.36-.32-.53a6.74,6.74,0,0,0,.4,1.17c.29.7.51,1.25.34,1.69a.53.53,0,0,1-.42.36c-.41.07-.73-.29-1.32-1a7.36,7.36,0,0,0-1-1,5.54,5.54,0,0,0,.69,1.1c.55.75,1.12,1.53.58,2.07s-1.24.05-1.65-.26l-.3-.21a6.7,6.7,0,0,0,.08.87c.11.74.21,1.45-.29,1.74a.68.68,0,0,1-.36.1,2.05,2.05,0,0,1-1.08-.48,4.59,4.59,0,0,1-1.78-2.59c-.17-.5-.26-.75-.49-.85a1.66,1.66,0,0,0-1.28-.08c-.34.06-.81.15-1.52.23a8.36,8.36,0,0,1-5.39-.84,2.83,2.83,0,0,1-1.12-2,2.38,2.38,0,0,0-.49-1.22,1.65,1.65,0,0,0-1.34-.6c-.12.05-.14.25-.14.4a1.29,1.29,0,0,1-.62,1.16c-.86.49-2.25.05-3.19-.47l-.42-.24c-1.21-.68-2.37-1.32-2.85-2.47-.16-.37-.21-.38-.9-.2a4.88,4.88,0,0,1-1.17.18,2.57,2.57,0,0,1-2.59-1.6c-1.57.84-2,1.17-1.48,2.65a13.67,13.67,0,0,1,.48,6.82c-.47,1.65-1.57,2.48-2.94,2.22a5.07,5.07,0,0,1-.91-.27,2.13,2.13,0,0,0-2.4.24A25.34,25.34,0,0,1,89,166.06a12.55,12.55,0,0,0-2.65,1.7,6.52,6.52,0,0,1-1.35,1c-.8.49-1.26.79-1.26,1.45a4.56,4.56,0,0,1-2.59,4.18c-1.21.47-2.71,1.06-3.09,1.8-.09.16-.21.35-.34.56-.57.91-1.34,2.15-.83,3.38a18.1,18.1,0,0,1,1,3.09c.1.4.2.79.3,1.13a4,4,0,0,1-.45,2.79c-.12.3-.25.61-.36.93a24,24,0,0,1-1.89,3.45l0,.08a5.66,5.66,0,0,0,2.77.6c1.25-.06,4.11-2.44,5.42-4.23s3.64-3.81,6.2-3.87,3.63-.54,5.78-.12,3.64.65,4.77.24.89-1.32,2.62-1.08a4.87,4.87,0,0,0,3.28-.41c.89-.42,1.67-.18,2.92-.06s3.76-.6,4.35-1.73,1.61-3.1,2.27-4.53,1.13-1.73,3.22-1.73,1-2.15,2.56-1.25a2.39,2.39,0,0,0,3.4-.78c.71-1,.47-2.86,1.84-3s1.85,2.62,3.1,1.61-.65-3.16.84-3.93a2.9,2.9,0,0,1,3.4.41c1.9,1.32,2.32,0,3-.89s2.82.64,4,1.25a2.13,2.13,0,0,0,3-.77c.42-.9,1.07-2.51,2.62-1.79s1.73.77,3-.24,1.13-1.61,2.8-.3,1.91.42,3.34.42a4.67,4.67,0,0,1,3.52,2.21c.89,1.19,2,3.33,3.75,3.57s2.69-.53,3,.9-1.19,3.33.3,3.21,1.67-2.62,2.51-1.25-.42,2.8.83,2.57,2.38-1.67,3.22-1.49a1.52,1.52,0,0,1,.83,2.26c-.65.72-2.14,2.15-1.19,2.39s1.49-3,2.5-1.61-1.07,3.75.24,3.93,1.14-2.5,2.51-3,1.37-.72,3.22,0,4.53-.89,5.48,1.43c.73,1.77.17,3.16.74,4.43a1.66,1.66,0,0,1-.12-.31A7.29,7.29,0,0,0,190.74,183.39Z"/>
			<path class="area" id="region-4" d="M327.68,150c-.95,1.16-3.1,1.12-4.29,1a8,8,0,0,0-3.75.29c-.29.11-.45.26-.49.43a1.68,1.68,0,0,0,.65,1.23c.55.55,2.71.82,3.87,1,.48.06.89.11,1.16.17a1.55,1.55,0,0,1,1.27,1,1.42,1.42,0,0,1-.46,1.45,30.78,30.78,0,0,1-5.65,4l-1,.46c-1.14.53-2,.91-2.31,1.71s.38,2.7.87,4.19c.26.8.51,1.56.66,2.19.49,2.08.75,3.46-.13,5.39a5.14,5.14,0,0,1-3.18,2.44,8.5,8.5,0,0,0-1.16.52,9.76,9.76,0,0,0-2.7,2.39,31.37,31.37,0,0,1-3.27,3.44,2.43,2.43,0,0,1-1.09.58c-.08.27-.17.55-.25.81-.36,1.1-.69,2.13-.2,2.63a2.47,2.47,0,0,1,.74,2.3c0,.24,0,.5,0,.8V191c0,1.2-.05,3,.46,3.7a.87.87,0,0,1,.17.81c-.18.53-.84.72-1.61,1a3.82,3.82,0,0,0-1.18.48,1.45,1.45,0,0,0-.09,1,4.66,4.66,0,0,0,1.54,3.07,9.37,9.37,0,0,0,3,1.19l.93.26a7.47,7.47,0,0,0,1.67.27,2.31,2.31,0,0,1,1.8.71,3.9,3.9,0,0,1,.77,1.28c.09.24.23.56.32.59s.12,0,.3-.07a4.64,4.64,0,0,0,1-.65,2.61,2.61,0,0,1,1.81-.74c.33,0,.51-.3.8-.94a2.23,2.23,0,0,1,1.18-1.4c1-.33,1.45.46,1.88,1.15a5.87,5.87,0,0,0,.82,1.11,4.07,4.07,0,0,0,4.69.82,10.55,10.55,0,0,1,5.15-.59c1-1.17,1.37-1.85,2.76-2a3,3,0,0,1,2.8,1.1,1.55,1.55,0,0,0,2.27.09c.56-.54.41-1.76,1.4-2.06s2.08,1,3.6.84,2-1.46,3.13-1.85a6.07,6.07,0,0,1,3.79-.09c1.1.42,2.62,1.7,4,1.7.89,0,2.42.12,3.69,0l-.25,0a1,1,0,0,0,.14-.28.77.77,0,0,0-.24-.8,3.89,3.89,0,0,1-.63-3.83c.09-.31.2-.62.32-.92.37-1,.57-1.6.11-2.06l-.12-.12c-.85-.84-1.2-1.2-.88-2.54.2-.87-.25-1.38-1-2.14a4.65,4.65,0,0,0-.89-.55c-.7-.36-1.42-.73-1.52-1.37a1.14,1.14,0,0,1,.4-1,4.62,4.62,0,0,1,1.94-1c.43-.13,1-.32,1.1-.5a.4.4,0,0,0-.06-.27,3.19,3.19,0,0,0-1.65-1.16c-.86-.38-1.84-.82-1.84-1.83,0-3.36.45-4.2.78-4.53.65-.64,1.25-.11,1.74.31a6.32,6.32,0,0,0,1.24.9c.07,0,.29.14.36.1a1.78,1.78,0,0,0,.32-.48,2.75,2.75,0,0,1,1.63-1.56,24.28,24.28,0,0,1,4.2-.81l0,.13a16.27,16.27,0,0,0,.21-3.35,9.14,9.14,0,0,0-1.1-3.42c-.48-1.19-.78-3.13-1.31-3.85a3.43,3.43,0,0,0-2.18-1.43,23.1,23.1,0,0,0-4.53-.74,6.61,6.61,0,0,1-3.46-.45,12.4,12.4,0,0,0-3.27-1.67c-1.32-.3-2.33.21-3.46-.57s-1.79-1.51-2.89-2.32a20.52,20.52,0,0,0-3.55-2.5,11.35,11.35,0,0,1-3-2.06c-.86-.74-.65-.8-2-.95a4.94,4.94,0,0,1-2.62-1.58c-.59-.48-1.67.65-2.26,0s-.09-1.14-1-2.18a1.47,1.47,0,0,0-.35-.32l-.06.3A3.28,3.28,0,0,1,327.68,150Z"/>
			<path class="area" id="region-11" d="M326.29,259.09a.31.31,0,0,0-.25.19,1.41,1.41,0,0,0,.22,1.37,3.64,3.64,0,0,1,0,3,18.16,18.16,0,0,1,.41,2.26c.26,1.72-1.38,5.63-.21,5.51s2.29-1.34,3-.66.3,1.58-.54,2.3,0,2.23-1.37,1.85-2.12-1.2-2.77-.21-1.4,1-2.54,1.1-1.82,1-2.77,1.79c-1.43,1.16-3.42,3-4.44,2.59s-1.64-1.7-2.14-1.76-.15.6.12,1.26-.42,1-1,1.34a49.11,49.11,0,0,0-5.84,2.95,11.69,11.69,0,0,0-3.16,3.33c-.3.75-.21,1.23-1,1.23s-1.49.71-2.27,1.31-1.93.21-2.71,1-3.81,2.83-3.61,4.59,2.3,4.08,4.12,3.7,3.28-2.06,4.2-2.18,3.07-.3,4.08.21a49.63,49.63,0,0,1,5.81,4.59,21.94,21.94,0,0,0,5.07,3.55c1.22.41,1.16,1,2,0s2.11-1.82,3.4-.93,3.87,1.88,4.38,4,.29,2.89.89,4a8.45,8.45,0,0,1,.54,4c0,1.26-1.58,1.23-2,2.66s.54,4.47.21,5.72-.12,3.31-1.73,3.66-2.89.42-3.19,1,1.64,2.32,2.89,3,2.54.44,3.52.86,1,1,2,2,2.26,2.17,3.63,2,1.88-1,2.83-.66,2.33,1.19,3.49.48a7.83,7.83,0,0,1,3.19-1.7c2.38-.78,2.53-1.85,3.16-2.8a5.12,5.12,0,0,1,2.89-2.33c1.28-.3,2.08-.77,2.2-2.29a8.39,8.39,0,0,1,1.91-4.77,9.7,9.7,0,0,1,4.71-3,5.8,5.8,0,0,0,3.34-2.09c.74-.92,2.17-.74,3.28-.71a4,4,0,0,0,2.8-.63,1.71,1.71,0,0,1,2.47-.24c.87.84,1.28,2.24,2.57,1.52s.95-1.67,1.22-2.83a2.86,2.86,0,0,1,1.79-2.56c1.57-.78.92-1.19,1.75-1.88s2.33.63,3.4-.27-.76-1.4,0-2.83c.6-1.16,2.45-4.47,5-4.59s3.54-.12,5.12,1.25,2.93,3.82,4.12,3.73,2.11-.93,2.83-.9,1.88.33,2.29-.74,1.14-1.61,2.24-1,3.22,2.08,4,1.31.48-2.27,1.52-2.27,2.63.33,3.76-.5a1.65,1.65,0,0,0,.62-2.48c-.47-1-1.49-2.44-1-4s-.15-3.07.78-3.25,1.57-.75,1.46-1.58.26-1.46,1.31-1.19a6.91,6.91,0,0,0,2.53-.21c.57,0,.57-2.5-1-3.25s-3,0-4.89-.27-4.71-1-5.54-.68-1.2-.21-2.81-.21a3.19,3.19,0,0,0-3,2.38c-.5,1.34-1.25,3-2.11,2.86a7.48,7.48,0,0,1-3.67-2c-.83-1-.36-1.64-.8-2.33s-.81.21-1.4,1.64-1.37,3.67-3.28,4.59a20.78,20.78,0,0,1-5.22,2c-.92,0-4.2-2.21-5.45-4.05s-7.27-9.18-8.53-11.21-1.72-3.1-2.38-3.58-.6.72,0,1.61,2.8,4.41,3.64,5.84,4.76,5.67,5.84,7.22a21.36,21.36,0,0,0,4.35,4.53c.95.53,1.43,1.61.06,1.37s-1.37-.84-2.8-1.37a14.89,14.89,0,0,1-3.34-1.61c-.84-.6-1.55,1-2.74.35s-2.27-2.32-3-3.27.77-1,1.25-1.55a2.77,2.77,0,0,0,.65-2.86A11,11,0,0,0,369,284.5a11.8,11.8,0,0,1-1.79-2.44,1.88,1.88,0,0,0-2-1.19,2.26,2.26,0,0,1-1.85-1.25,1.43,1.43,0,0,0-1.84-.66c-.84.3-2.75.78-2.63-.06s1.73-2.56,1.79-3.34-.71-1.31-1.43-.53-1.79,2.14-2.32,1.25.71-2.39,1.25-2.74,1.9-1.08.71-1.08a4.55,4.55,0,0,0-3.1,1.49c-.83.84-3,4.3-4.05,3.52s-.36-2.09.71-2.8,3.4-2.33,3.52-3.34.18-2.26-.53-2.56-1.14,1.43-1.91,2.2-2,2.57-2.39,1.67-.18-2.68-.77-2.14-.3,2.5-1.31,2.5-1.31-1.19-.72-2,1.07-1.9.48-2.62a1.68,1.68,0,0,0-2.09-.6c-.71.36-1,.18-2.14,0s-1.67.84-1.73,1.73a1,1,0,0,1-1.73.6c-.54-.84.71-1.37.95-2.21s-.77-.65-1.78-1.25-2-2-3.22-2.26-2.09,0-1.55.65,1,1.49.71,2.15-.65-.54-1.43-.66-1.91.06-1.91-.89-.65-1.91-.65-2.57-.72-2.14-1.07-1.31-1.08,1.73-1.67,1.08-1.73-1.14-1.79-2a4.43,4.43,0,0,1,0-.95h0A3.76,3.76,0,0,0,326.29,259.09Z"/>
			<path class="area" id="region-10" d="M298.86,142.62a2,2,0,0,1-.93,1.28,3.44,3.44,0,0,1-2.62,0c-.55-.16-.78.11-1.17.64s-1,1.31-2.06.58c-.32-.21-.43-.19-.43-.19a1.27,1.27,0,0,0-.24.33,2,2,0,0,1-1.48,1.15,1.06,1.06,0,0,1-.86-.18c-.51-.37-.63-1.14-.76-2a4.37,4.37,0,0,0-.77-2.3c-1-1-1.8-1-3.21-1h-.61c-1.26,0-2.19,1-3,2-.22.24-.42.47-.62.67a2.26,2.26,0,0,0-.4,1.74,3.71,3.71,0,0,1-.35,2.05c-.61,1.06-1.82.72-2.89.42a6.61,6.61,0,0,0-1.69-.32c-.48,0-.52.11-.66.59a2.38,2.38,0,0,1-1.52,1.73,1.69,1.69,0,0,1-1.9-.38,6.86,6.86,0,0,1-1.08-1.64,7.4,7.4,0,0,0-1.1-1.68c-.5-.51-.59-.42-1.15.12a3.94,3.94,0,0,1-1.81,1.12,6.25,6.25,0,0,1-1.73.17c-.67,0-.71,0-.82.44a8.12,8.12,0,0,0-.17,1.45,3.94,3.94,0,0,1-.7,2.52l-.38.4a11.7,11.7,0,0,1-3.63,2.82,4.23,4.23,0,0,1-3.49-.2,3.91,3.91,0,0,0-2-.39,8.61,8.61,0,0,0-1.33.38,3.33,3.33,0,0,1-3.51-.21c-1.1-.77-2.51-.68-4.29-.57-.72,0-1.46.09-2.28.09-2.32,0-3.64,2.23-4.52,3.7l-.36.6a3,3,0,0,0-.25,1.67c0,1,.06,2.22-1.33,2.82a2,2,0,0,1-2.5-.54c-.35-.34-.59-.55-1-.55s-.57.13-.78.6a3.6,3.6,0,0,1-1.21,1.56c-1.35,1-2.33,1.72-3.91,1.2-.39-.13-.54,0-.93.48a1.9,1.9,0,0,1-1.5.92h-.33c-2.17,2.72-3.2,3.69-3.91,3.69-.43,0-1.44-.22-1.44-2.28a.31.31,0,0,0-.22-.33c-.38-.12-1.06.14-1.66,1-1,1.49-2.34,3.35-2.34,4.54a8.14,8.14,0,0,0,.73,2.9l.09.23a3.84,3.84,0,0,1,1.79,1.19c.4.41.5.49.63.44s.3-.39.42-.86.4-1.61,1.58-1.43a3.86,3.86,0,0,1,3,2.37c.23.54,3.22,1.77,7.37,1.83a2.29,2.29,0,0,1,1.35-1.5,5.78,5.78,0,0,1,4.53.1l.28.1c1.23.44,1.74.63,2.59.18a2,2,0,0,0,.62-.56c.51-.62,1-1.06,2.55-.67.68.17,1.27.37,1.8.55a4.18,4.18,0,0,0,2.74.39,4.35,4.35,0,0,0,1.39-.93A4.42,4.42,0,0,1,249,176.3c1.84-.16,3.92-.34,4.69.95a7.88,7.88,0,0,1,.43.82,3.61,3.61,0,0,0,2,2.21,4.93,4.93,0,0,0,2.72,0,8.55,8.55,0,0,1,1.61-.21c.75,0,2,.31,2.31,2.35a5.85,5.85,0,0,0,1.71-1.2,3.07,3.07,0,0,1,4.07-.36,2.06,2.06,0,0,1,.92,2.94c0,.1-.08.2-.11.29a2,2,0,0,0,.61,2.55c.27.25.55.49.83.72,1.06.92,2.07,1.78,2.07,2.89a2.74,2.74,0,0,1-.74,1.55c-.25.32-.55.71-.51.92s.16.23.4.36a3.54,3.54,0,0,0,2.63.22,5.22,5.22,0,0,1,1.53-.12,6.38,6.38,0,0,1,3.43,2c.53.53,1.69-.21,2.58-.91l.4-.34c1-.87,2.55-2.17,4.5-1.23l.84.43a4.12,4.12,0,0,0,3.84.48,13.13,13.13,0,0,1,2-.35,2.59,2.59,0,0,0,1.1-.24c.06,0,.22-.17.17-.92,0-.33-.06-.64-.09-.91-.12-1-.23-1.87.7-2.33l0,0a1.93,1.93,0,0,0-.14-.59,3.08,3.08,0,0,1-.2-1.79,2.13,2.13,0,0,1,1.24-1.46,2.33,2.33,0,0,1,2.07.14c.6.34.88.49,1.93-.42a5,5,0,0,0,.83-1c.51-.8,1.15-1.79,2.65-1.39a10.85,10.85,0,0,1,1.31.45c.85.34,1.17.47,1.82-.1a32.59,32.59,0,0,0,3.18-3.33,10.68,10.68,0,0,1,2.92-2.6,9.77,9.77,0,0,1,1.3-.57,4.34,4.34,0,0,0,2.69-2c.76-1.67.53-2.86.07-4.81-.14-.6-.38-1.34-.64-2.12-.65-2-1.27-3.84-.84-4.82s1.48-1.58,2.75-2.17l.94-.45a30.26,30.26,0,0,0,5.39-3.81c.21-.22.31-.44.27-.57s-.21-.27-.61-.35c-.22-.05-.62-.1-1.07-.15-1.92-.24-3.69-.51-4.4-1.22a2.35,2.35,0,0,1-.89-2,1.52,1.52,0,0,1,1-1.09,8.93,8.93,0,0,1,4.16-.34c1.7.19,3-.06,3.51-.67a2.65,2.65,0,0,0,.37-1.18c0-.13.05-.26.07-.38h.11a4.83,4.83,0,0,1-2-.16c-1.28-.54-.53-1.14-2.38-1.88s-2.24-.6-3.19-1.55-2.35-1.46-3.13-2.15-.71-1.43-1.79-2a9.9,9.9,0,0,0-4.23-.63c-1.46,0-2.35-.33-2.71.48s.59,3.13-.72,2.92-2.11-.42-2-1.43.92-1.73-.36-2.27-1.79-.77-2.71-.27a1.65,1.65,0,0,1-2,.06c-.6-.38-1.34.06-2-.32l-.05,0,0,.1C298.74,140.65,299.06,141.92,298.86,142.62Z"/>
			<path class="area" id="region-4" d="M368.89,175.34a11.75,11.75,0,0,1,2.23.7,7,7,0,0,0,2.8.66,3,3,0,0,0,2.19-.84,5.26,5.26,0,0,1,1.54-.91,3,3,0,0,1,2.89.59,7.24,7.24,0,0,0,1.17.65l.29.11c1.29.54,1.82.76,2.83.07s2.22-1.06,3.05-.62a1.39,1.39,0,0,1,.72,1.33v.16l.13,0a1.53,1.53,0,0,1,1.71.24,1.93,1.93,0,0,1,.48,1.95,2.52,2.52,0,0,0,0,1.06c.06.27.36.44.84.67.66.32,1.57.76,1.41,2a4.25,4.25,0,0,1-.94,2c-.55.77-.56.9-.34,1.12s.77-.33,1.19-.71c.7-.6,1.65-1.43,2.42-.66a7.09,7.09,0,0,1,.72.91c.41.61.64.94,1.55.94.54,0,.67-.23.9-.6a1.69,1.69,0,0,1,1.88-1c.83.1,1.53.12,2.27.14.53,0,1.08,0,1.68.08-.56-.86-.86-1.75-.08-2.53a7.51,7.51,0,0,1,1-.84c.77-.54.89-.69.77-1a13.08,13.08,0,0,0-.63-1.17,17.51,17.51,0,0,1-1.39-2.84,1.9,1.9,0,0,1,0-1.52,3.7,3.7,0,0,1,2.35-1.47l.39-.14c1.31-.46,2.15.53,2.89,1.39.21.25.42.5.65.73a1.43,1.43,0,0,0,1.38.37,3,3,0,0,0,1.48-.84c.49-.49,0-1.93-.39-3-.15-.41-.28-.8-.38-1.15a3.16,3.16,0,0,1,.51-2.31,2.58,2.58,0,0,0,.45-1.47c-.14-1.06-1-1.75-2.51-2.66-1.26-.75-1.08-2-.92-3.06a5.93,5.93,0,0,0,.09-1.51,6.19,6.19,0,0,1,.9-3.5c.16-.33.32-.68.46-1a1.55,1.55,0,0,0,.1-1.31,1.75,1.75,0,0,0-1.28-.74.62.62,0,0,0-.18,0,2.26,2.26,0,0,0-.17.83c-.06.69-.16,1.85-1.32,1.85a1.18,1.18,0,0,1-1.05-.45c-.35-.53-.06-1.24.22-1.93a5.71,5.71,0,0,0,.25-.72c.09-.37-.26-.61-1.19-1.14l-.33-.18a6.16,6.16,0,0,1-1.11,2.2c-.8.8-1.83-.05-2.84-.86a12,12,0,0,0-1.5-1.1,1.11,1.11,0,0,0-.82-.2c-.44.12-.79.74-1.1,1.28l-.28.49a8.32,8.32,0,0,0-.4.75c-.51,1-1.22,2.48-2.78,2.53a1.42,1.42,0,0,1-1.08-.36,2.44,2.44,0,0,1-.34-1.88,5.73,5.73,0,0,0-.07-1.7c-.3-1.24-1.44-1.77-2.54-2.28l-.6-.28c-1-.48-.73-1.37-.57-2s.25-1-.09-1.37a7.69,7.69,0,0,0-2.41-1.45,14.09,14.09,0,0,1-2.3-1.24,2.13,2.13,0,0,1-.6-2.62c.17-.62.26-1,0-1.33a2.8,2.8,0,0,0-3.29-.54,7.72,7.72,0,0,1-3.69,1,24.83,24.83,0,0,1-8.91-2.46l-.57-.34a31.2,31.2,0,0,1-5.28-3.66c-1.46-1.3-1.53-1.31-2.49-1.5l-.8-.17a15.64,15.64,0,0,0-3.63-.29h-1.33l-.68,0c-1.22-.05-2-.08-2.56.35-.18.15-.36.32-.56.51a7.2,7.2,0,0,1-2.9,1.9,24.86,24.86,0,0,0-5.7,3.52,25.65,25.65,0,0,0-3.72,4.09c-.5.63-.33.95,0,1.65a5.12,5.12,0,0,1,.67,1.81,11.14,11.14,0,0,1-.07,4.36,1.63,1.63,0,0,1-.62.82,12.35,12.35,0,0,0,2.27,1.34c1.52.67,2.19,1.52,3.89,2.1s1.65,1.87,3.13,3,2.86,1.21,3.48,1.7,1.08,1.3,2.19,1.25,2.28.14,3.22.14,3.45.94,4.79.89,1.83-.62,1.7-1.65a4.7,4.7,0,0,1,.67-3.71c.93-1.12,1.78-3.4,2-2.15s.09,3.76.32,4.47-1.48,1.3-2,2.1-1.43,1.57-1.25,2.6A18.46,18.46,0,0,0,365,168a10.26,10.26,0,0,1,1.39,4.43,16.13,16.13,0,0,1-.22,2.84h0A12.49,12.49,0,0,1,368.89,175.34Z"/>
			<path class="area" id="region-21" d="M327.6,205.41a5,5,0,0,1-5.68-1,6.8,6.8,0,0,1-.95-1.28c-.46-.73-.59-.86-.84-.77s-.45.49-.65.92c-.29.65-.67,1.46-1.61,1.46a1.78,1.78,0,0,0-1.26.55,5.22,5.22,0,0,1-1.19.76,1.47,1.47,0,0,1-.64.16,1.13,1.13,0,0,1-.36-.06,1.72,1.72,0,0,1-.82-1.08,3.1,3.1,0,0,0-.57-1,1.48,1.48,0,0,0-1.22-.45,8.53,8.53,0,0,1-1.86-.3l-.93-.26-.6-.16a9,9,0,0,0,.45,1.71,12.73,12.73,0,0,1,.49,1.77c.32,1.66.38,2.52-.12,2.9a.89.89,0,0,1-1,0,2.1,2.1,0,0,0-1.47-.31,2.71,2.71,0,0,0,.71.48c.64.37,1.44.82,1.44,1.62s0,3.42.65,4.63c.48.91.73,1.55.56,2.08a1.62,1.62,0,0,1-1,.87,7.12,7.12,0,0,1-1.42.41,4.89,4.89,0,0,0-2.26.85,7.48,7.48,0,0,1-1,.76c-.58.41-1.37,1-1.41,1.41,0,0,0,.19.22.42a9.44,9.44,0,0,0,1.94,1.26c1.38.75,2.8,1.52,2.8,2.74a1.2,1.2,0,0,1-.37.93,2.45,2.45,0,0,1-1.9.26,5.77,5.77,0,0,0-.8,0,5.8,5.8,0,0,0,1.1,1,5.75,5.75,0,0,1,.53.45.87.87,0,0,1,.18,1c-.24.57-1.14,1.24-2.91,1.24-.19,0-.52,0-.95-.09a15.65,15.65,0,0,0-2-.18,9.65,9.65,0,0,0,1.63,1c.93.51,1.6.88,1.67,1.43a.73.73,0,0,1-.23.64c-.83.84-3.38,1.21-5.53,1.21A3.73,3.73,0,0,1,296,234.1c-.45-.41-.87-.79-1.23-.79a3.51,3.51,0,0,0-1.51.65,4.78,4.78,0,0,1-2.32.88,4.47,4.47,0,0,1-1.9-.6,5,5,0,0,0-.65-.29V234a2.4,2.4,0,0,1-2.21,2.44,2.51,2.51,0,0,1-.87-.23c-.86-.34-1-.3-1.19,0a5.93,5.93,0,0,0-.31.81c-.3.87-.68,2-2.08,2h-5.59a34.27,34.27,0,0,0,1.25,3.35c.72,1.43,1.34,1.49,2.06,1.58a2.7,2.7,0,0,1,2,1.4c.48.87,1.29,1.4,2,1s.95-1.61,2.12-1.08,1.25,1.34,2.62,1.46,2.06-.44,3.22-1.37a42.41,42.41,0,0,1,4.47-2.95c1.13-.62,2.32-1.58,3.31-1.58s2.17.06,2.86-.53a12.66,12.66,0,0,1,2.95-2.09,19.93,19.93,0,0,1,4.53-1.4c1.4-.21,3.25-.36,4.38-.45a5.35,5.35,0,0,0,3.25-1.13,14.13,14.13,0,0,1,2.17-2.09c.84-.53,1.55-.21,2.83-.24s1.29-1.19,1.73-2.08-.23-2.51.69-2.89-.15-1.08-.21-1.73,1.22-1.07,1.82-1.34a9,9,0,0,0,2.05-2.45c.51-.74.24-2.71.66-3.36s1.76-1.29,2.47-2.06a11.37,11.37,0,0,0,2.27-4.62,6.7,6.7,0,0,0-.45-3.93c-.47-1.12-1.6-2.38-1.33-3.51h0A9.38,9.38,0,0,0,327.6,205.41Z"/>
			<path class="area" id="region-23" d="M295.61,117.78c0-.78-.47-1.1-1.24-1.55s-1.33-.76-1.33-1.64c0-.33-.06-.39-.84-.48a2.67,2.67,0,0,1-1.72-.65,3.1,3.1,0,0,1-.67-1.71c-.17-1-.32-1.81-1.45-2.11-.38-.11-.8-.2-1.21-.29-1.54-.35-3-.67-3.45-1.61a1.56,1.56,0,0,1,.06-1.42,12.61,12.61,0,0,1,.93-1.6c.83-1.28,1.32-2.11.78-3a7.58,7.58,0,0,0-2-2.08,13.59,13.59,0,0,1-1.36-1.16,4,4,0,0,1-1.21-1.77,1.74,1.74,0,0,1,.59-1.74.89.89,0,0,0,.26-1c-.09-.14-.25-.17-.49-.09l-.54.22a2.14,2.14,0,0,1-2.74-.32,14.62,14.62,0,0,1-1-1.19c-.56-.71-1.14-1.44-1.65-1.56a1.43,1.43,0,0,0-1.3.34.73.73,0,0,0-.18.75c.38,1.44-.39,2.2-1.56,3.37s-1.63,1.94-1.26,3.26a4.9,4.9,0,0,1-1.49,4.56,7.72,7.72,0,0,0-.86,1.45c-.78,1.52-1.74,3.41-3.32,3.25-.57,0-1-.12-1.44-.19,0,.65-.19,1.21-.69,1.41-.87.35-.69,1.58-1.84,2.62-.33.31-.37.44-1.27,0s-.56-1.7-.2-2.77a4.1,4.1,0,0,0,0-2.89.42.42,0,0,1,0-.1h0c-.41-.48-.81-.77-2.19-.31a13.94,13.94,0,0,1-2.1.5c-1.35.25-1.81.33-2.11,2-.17,1-.28,1.85-.39,2.72a14.06,14.06,0,0,1-.9,4.16,9.49,9.49,0,0,1-.67,1.16c-.53.84-.58,1-.17,1.4a1.93,1.93,0,0,1,.52,2,5.33,5.33,0,0,1-1.46,2.08,13.61,13.61,0,0,0-1.61,2,14.66,14.66,0,0,1-1.64,2,2.14,2.14,0,0,0-.4,1.77,1.84,1.84,0,0,1-.27,1.46,1.25,1.25,0,0,1-1,.35,4.61,4.61,0,0,1-1.64-.31c-.52-.19-.65-.23-1.05.18-1.24,1.23-2.64,1.43-3.57.5-1.13-1.13-1.66-1.32-2.19-.79-1.18,1.18-2.22,1-3.45.58-.58-.18-1-.27-1.25-.13s-.34.42-.44.92-.12.84-.17,1.29c-.12,1.2-.22,2.16-.85,2.38a1,1,0,0,1-1-.37,3.71,3.71,0,0,0-2.14-.89,6.93,6.93,0,0,1-1.84-.53,1.71,1.71,0,0,1-1.09-1.6c0-.36,0-.38-.25-.44s-.27.1-.57.7-.62,1.26-1.37,1.26a6.34,6.34,0,0,1-.95-.09,3.09,3.09,0,0,0-2.31.27,6.89,6.89,0,0,0-1.59,2,5,5,0,0,1-1.6,1.87,4.29,4.29,0,0,1-3.1.24,2.78,2.78,0,0,1-.28.54,15.78,15.78,0,0,1-1.9,2.27,10.9,10.9,0,0,0-1.23,1.42,1.19,1.19,0,0,0-.15,1.09,1.8,1.8,0,0,0,1.11,1.06,1,1,0,0,1,.69.57,1.32,1.32,0,0,1-.26,1.13,2.15,2.15,0,0,0-.38,1c0,.17,0,.24.76.31.54.05,1.28.12,1.48.82a1.92,1.92,0,0,1-.22,1.32c-.26.61-.38.94.1,1.43a3.39,3.39,0,0,1,.8,2.16c.11,1,.2,1.15.64,1.15a3,3,0,0,1,2.34.82,2,2,0,0,1,.42,1.69c-.1.67.35,1.06,1.14,1.69.28.23.58.47.86.75a2.23,2.23,0,0,1,.68,1.67,3.21,3.21,0,0,0,.51,1.66c1.13,1.83.68,2.5-.06,3.25a8.21,8.21,0,0,1-.7.55,5.33,5.33,0,0,0-.86.71,1.46,1.46,0,0,0,.34.11,7.64,7.64,0,0,0,2.91.08,11.71,11.71,0,0,1,1.18-.09c.32,0,.52-.22.81-.58a1.62,1.62,0,0,1,1.9-.77c1.06.35,1.62,0,3.1-1.06a2.71,2.71,0,0,0,.92-1.22,1.54,1.54,0,0,1,1.6-1.13,2.16,2.16,0,0,1,1.61.82c.45.43.72.7,1.53.35s.81-.94.79-2a3.67,3.67,0,0,1,.39-2.18l.34-.57c.92-1.55,2.46-4.14,5.29-4.14.79,0,1.52-.05,2.23-.09,1.87-.12,3.5-.22,4.85.73,1,.71,1.68.47,2.7.1a9.57,9.57,0,0,1,1.47-.43,4.74,4.74,0,0,1,2.47.44,3.44,3.44,0,0,0,2.8.23,11,11,0,0,0,3.35-2.62c.15-.16.28-.3.41-.42a3.57,3.57,0,0,0,.44-1.94,9.21,9.21,0,0,1,.19-1.61c.28-1.13,1-1.12,1.7-1.12a6,6,0,0,0,1.51-.15,3,3,0,0,0,1.4-.9c.54-.52,1.28-1.23,2.4-.11a8,8,0,0,1,1.26,1.9c.73,1.37,1.11,1.9,1.86,1.6a1.45,1.45,0,0,0,1-1.16,1.42,1.42,0,0,1,1.52-1.22,7.25,7.25,0,0,1,1.93.36c1.21.34,1.65.38,1.88,0a3.1,3.1,0,0,0,.23-1.59,3,3,0,0,1,.65-2.38c.19-.19.38-.4.59-.63.9-1,2-2.26,3.67-2.26h.6c1.48,0,2.56,0,3.85,1.26a4.83,4.83,0,0,1,1,2.8c.09.57.2,1.28.41,1.44,0,0,.06,0,.18,0,.47-.08.65-.38.86-.73a1.35,1.35,0,0,1,.81-.74,1.49,1.49,0,0,1,1.13.32c.35.23.42.2.84-.37a1.84,1.84,0,0,1,2.13-1,2.72,2.72,0,0,0,1.94,0,1.13,1.13,0,0,0,.51-.73,11.23,11.23,0,0,0-.64-3.38q-.14-.51-.27-1a17.42,17.42,0,0,1-2.74-2c-1-1-1.76-2.38-3.19-3s-1.61-.21-3-1.34-1.55-1.64-2.74-2.17-2.21-.48-3.07-1.08a9.22,9.22,0,0,1-2.74-2.11,19.34,19.34,0,0,0-3.67-3.16,25.5,25.5,0,0,0-3.06-2.12c-.89-.49-1.52,0-2.68-.45s-1.16-1.25-1.61-1.87-1-1.7-1.83-1.7-1.65-.67-.8-.81,2.95,0,3.17.41.94,2.63,1.7,3a2.87,2.87,0,0,0,2.5-.14c.63-.44,1-2.1,2-1.43s1.17,2.19,2.42,3a7.08,7.08,0,0,0,3.75.72,4.19,4.19,0,0,1,3.13,1.34c1.21,1.12,2.37,3.22,3.58,3.44s2.19,0,3.58.94,1.87,1.07,2.95.8,1.29-1.25.35-2-2.46-1.61-2.68-2.55-.18-3.17.54-4,1.88-1.25,2-.22a.06.06,0,0,1,0,0h0A2.43,2.43,0,0,0,295.61,117.78Z"/>
			<path class="area" id="region-8" d="M361.11,177a1.94,1.94,0,0,0-1.11,1.12c-.29.54-.73,1.36-1.89.75a7.18,7.18,0,0,1-1.41-1,2.52,2.52,0,0,0-.49-.38l0,0c-.09.09-.53.68-.53,3.9,0,.4.5.65,1.32,1a3.86,3.86,0,0,1,2.09,1.58,1.24,1.24,0,0,1,.07,1c-.25.55-.93.77-1.65,1a4.13,4.13,0,0,0-1.58.74c-.13.13-.15.21-.14.22,0,.2.68.54,1,.72a4.52,4.52,0,0,1,1.11.71c.74.74,1.58,1.57,1.25,3-.21.86-.16.91.64,1.71l.12.12c.9.9.45,2.07.09,3-.11.29-.21.57-.28.83-.16.61-.45,2.12.4,3a1.69,1.69,0,0,1,.49,1.58,2.39,2.39,0,0,0,1-.4c1.05-.8,3.28-3,3.58-4.65s.9-3.51.72-4.53-1.4-2.59-1.43-3.6-.06-4.2.06-4.83,1-1.4.29-2.3-1.9-1.9-2.32-2.41-.51-1.94.06-2.15,1.5,0,2.05-.51a.27.27,0,0,1-.08.07A22.3,22.3,0,0,0,361.11,177Z"/>
			<path class="area" id="region-19" d="M117.75,91.65a1.32,1.32,0,0,1,.83-1.07,5.46,5.46,0,0,1,0-1.83c0-.33.06-.68.06-1,0-.47-.1-.57-.13-.6a1.58,1.58,0,0,0-.57-.07,3.64,3.64,0,0,1-1.12-.14,8.25,8.25,0,0,0-2.65-.07c-.62,0-1.32.09-2.05.09a2.75,2.75,0,0,0-2.21,1.19,7.06,7.06,0,0,1-1.42,1.23,3.81,3.81,0,0,1-2.57.47,4.32,4.32,0,0,0-1.8.11c-1.78.55-2.2.44-4.22-.11l-.23-.07a1.17,1.17,0,0,0-.88,0c-.37.22-.53.89-.7,1.6A7.47,7.47,0,0,1,97.53,93a5.61,5.61,0,0,0-.26,2.88,15.5,15.5,0,0,1,0,2.65c-.22,2.23-2.15,2.91-3.71,3.45-.33.12-.65.23-.94.36a9.37,9.37,0,0,1-1.95.55,10.41,10.41,0,0,0-2.83.92c-1,.49-.94.8-.7,1.54a2.89,2.89,0,0,1,0,2.2c-.5,1.15-1,1.28-1.6,1.32a1.2,1.2,0,0,0-.92.41,17.66,17.66,0,0,1-4.87,3.65l-.58.25c-1.47.62-2.08.91-2.24,1.79a7,7,0,0,0,.57,3.89c.17.43.35.79.52,1.14a6,6,0,0,1,.84,2.94c0,.31,0,.59,0,.84a3.11,3.11,0,0,0,.67,2.5,2.28,2.28,0,0,1-.06,3.15l-.22.32a1.91,1.91,0,0,0-.33,1.49,1.25,1.25,0,0,0,.74.76l.62.28c1.51.66,2.23,1,2.21,1.56a.65.65,0,0,1-.5.59,2.86,2.86,0,0,0-1.51,2.21c0,.42.56,1,3.23,1.61a2.08,2.08,0,0,1,1.93,2.27,5.58,5.58,0,0,0,.12.89c.13.49.47.64,1.18.9a4.87,4.87,0,0,1,1.88,1.09,2,2,0,0,1,.27,2.4,1.71,1.71,0,0,0-.18,1.33,8.52,8.52,0,0,0,1-1.4,7.23,7.23,0,0,1,1-1.38c1-1,2.73-.39,3.83.71a7.5,7.5,0,0,0,1.81,1.13,7.53,7.53,0,0,1,1.86,1.18c.93.93,1.07,3.49,1.07,4.93,0,.95.94,1.39,1.81,1.39a3.63,3.63,0,0,0,.94-.16c.63-.16,1.49-.38,2,.73a5.23,5.23,0,0,0,2.47,2l.42.24a2.88,2.88,0,0,0,2.3.47s.17-.1.17-.38a1.2,1.2,0,0,1,.7-1.23,2.38,2.38,0,0,1,2.31.8,3,3,0,0,1,.73,1.67,2,2,0,0,0,.74,1.46,7.47,7.47,0,0,0,4.74.71,15.25,15.25,0,0,0-1.48-3.61,15.93,15.93,0,0,0-1-1.49,11.12,11.12,0,0,1-1.16-1.86,3.94,3.94,0,0,1-.11-2.76c0-.13.06-.26.08-.41a2.15,2.15,0,0,1,.75-1.19l.19-.19a1.46,1.46,0,0,0-.28-.34c-.77-.78-.91-.92-.8-1.6a5.71,5.71,0,0,0,.08-1,2.18,2.18,0,0,0-.28-1.36,4.56,4.56,0,0,1-.48-1.26c-.27-1.14.71-1.68,1.24-2l.27-.15a2.71,2.71,0,0,1-.31-3l0-.12c.34-1,.46-1.38-.06-1.9a1.39,1.39,0,0,1,0-1.77c.21-.39.22-.48.16-.54-.46-.46-1-1.56.36-3.69.82-1.27.82-2.19.82-4.2a8.65,8.65,0,0,0-1.6-5c-1.15-1.7-.69-2.94.84-5.23s1.7-2.67,1.7-4.67c0-1.3-.13-5.73-1.83-7.89s-.3-3.35.6-4.17c.15-.14.29-.26.41-.39a8.64,8.64,0,0,1,.85-.71c.32-.25.72-.56.73-.74s-.07-.2-.21-.34a1.91,1.91,0,0,1-.67-1.61,1.86,1.86,0,0,1,.94-1.34,1,1,0,0,0,.49-.68s0-.07-.14-.12C118.14,92.53,117.75,92.11,117.75,91.65Z"/>
			<path class="area" id="region-7" d="M67.76,174.92a2.87,2.87,0,0,0-.92-1,2.71,2.71,0,0,1-1.35-2.23,8.49,8.49,0,0,1,.24-1.77c.22-1.06.33-1.73-.11-2.17-.22-.23-.53-.51-.88-.83a22.57,22.57,0,0,1-3.64-4c-.42-.68-.67-.61-1.49-.35a5.46,5.46,0,0,1-2.87.28,1.7,1.7,0,0,1-1.27-.81c-.6-1-.06-2.61.42-4a7.46,7.46,0,0,0,.48-1.84c0-.52-.23-.61-.3-.64a1.52,1.52,0,0,0-1.43.44c-.83.83-2.5.87-4.46.1-1.28-.5-1.83-2-2.27-3.11a9.51,9.51,0,0,0-.52-1.2c-.15-.25-.27-.5-.39-.74-.41-.83-.66-1.34-1.66-1.34-1.23,0-1.71-.91-2.22-1.88A6.89,6.89,0,0,0,41.85,146c-.76-.76-1-.68-1.49-.5a3.26,3.26,0,0,1-1.77.22,5.14,5.14,0,0,1-2.36-1.19,3.92,3.92,0,0,0-2.3-1,4,4,0,0,1-4.14-3.22c-.29-1-.58-1.55-.91-1.71-.14-.07-.38-.12-.92.1-1.26.53-2.15-.59-2.94-1.59-.26-.32-.52-.66-.79-.93a3.3,3.3,0,0,1-.79-2.47,6.28,6.28,0,0,0-.18-1.58,7.79,7.79,0,0,1-1.82-1.74c-.72-1.07-1.73-.77-2.8-.77s-1.67-3.28-2.8-2.39-.48,2.86-.9,3.58-1.79-.3-2.68.89a6.27,6.27,0,0,0-1.07,2.86c-.3,1-1.37,1.37-2,2.21s-.36,1.19-.24,2.14-1.31.84-1.31,2.09.66,1.61,0,2.56-4.17,2.39-5.07,3.46-.83,2.09-1.43,4.41-1.84,4-.53,3.94,1.9-1.37,2.74-.36,1.43,3.22,2.2,4.53.42,3,2.09,3,2-.48,2.8.77,1.49,4.3,2,5.31,1.85,1.25,3.22,1,1.85-.59,2.74.6a3,3,0,0,1,.24,3.46c-.6.89-1.08,2.26,0,2.86s2.56-.84,2.74-1.73,1.07.24,2.26.42,2.09-2,2.69-3.1,1.67-2.15,2.86-1.37,2.26,4.29,4.71,5.12,2.62,2.39,3.28,1.67,1-1.43,2.38-.77,2.86.65,4.53,1.25A3.56,3.56,0,0,1,46.53,180c.66,1.08,1.37-1.19,2.92-1.25a5,5,0,0,1,3.76,1.91c1,1.07,1.61.54,2.44,1s2.57.9,3.1.42a4,4,0,0,1,2.69-1.13c1.25,0,1.43-1.14,2.5-.6.67.34.9-.1,1.47-.06a14.26,14.26,0,0,1,1.9-2.25A2.47,2.47,0,0,0,67.76,174.92Z"/>
			<path class="area" id="region-8" d="M422.49,221.15c1.06-1.06,1.54-1.54,1-2.73-.21-.47-.26-.46-.59-.43a2,2,0,0,1-1.76-.66,8.33,8.33,0,0,1-1.17-1.5,4.78,4.78,0,0,0-1.68-1.77,2.82,2.82,0,0,1-1.6-2,1.76,1.76,0,0,1,.54-1.46c.35-.36.34-.46-.16-1.63l-.3-.69a1.46,1.46,0,0,1,0-1.44c.49-.59,1.53-.38,2.54-.18l.2.05a1.91,1.91,0,0,0,1.44-.19,1,1,0,0,0,.44-.68v-.06c.2-1.07.32-1.31,1.59-2.29l.1-.08c1.18-.9,1.67-1.28,1.67-3.12a4.47,4.47,0,0,0,0-.52l-.19.08a3.7,3.7,0,0,1-2.16.38c-1.59-.23-2.51-1.58-3.32-2.78a9.58,9.58,0,0,0-1-1.26c-.42-.41-.48-.38-1.08.22a5.65,5.65,0,0,1-1.17,1,1.35,1.35,0,0,1-.68.2c-.8,0-1.38-.85-1.87-1.56a5.16,5.16,0,0,0-1.33-1.5,5.63,5.63,0,0,1-2.87-3.84,4.54,4.54,0,0,0-1.83-2.19,8.48,8.48,0,0,1-1.6-1.51c-.16-.22-.33-.44-.5-.65l0,0c-.93-.1-1.69-.12-2.43-.14s-1.48-.05-2.35-.15c-.63-.07-.76.13-1,.54a1.73,1.73,0,0,1-1.66,1,2.42,2.42,0,0,1-2.29-1.32,4.73,4.73,0,0,0-.61-.78c-.19-.19-.77.33-1.2.7-.69.6-1.64,1.43-2.41.66s-.22-1.62.25-2.28a3.48,3.48,0,0,0,.78-1.57c.07-.55-.2-.74-.92-1.09a2.08,2.08,0,0,1-1.32-1.27,3.48,3.48,0,0,1,0-1.41c.09-.55.12-.81-.23-1.17-.2-.2-.39-.16-.79,0a1,1,0,0,1-1,0,1.12,1.12,0,0,1-.35-1c0-.42-.17-.51-.24-.54a2.56,2.56,0,0,0-2.12.57c-1.41,1-2.37.57-3.68,0l-.29-.12a8.77,8.77,0,0,1-1.31-.71c-.75-.49-1.25-.8-2.12-.5a4.24,4.24,0,0,0-1.27.76,3.88,3.88,0,0,1-2.75,1,7.73,7.73,0,0,1-3.13-.72,11.11,11.11,0,0,0-2.06-.65,11.69,11.69,0,0,0-2.82,0,2.35,2.35,0,0,1-.35.67c-.67.9-2.32.45-2.14,1.3s1.92,1.25,2.37,2.19a2.93,2.93,0,0,1-.18,2.73c-.45.71-.36,1.83-.18,3.44a54.68,54.68,0,0,0,1.56,5.68c.36,1.43-.13,2.23,1.08,3.13s1.34,2.59,2.14,3.62,1.88,1.47,1.57,2.77-1,2.1-1,2.68-1,.45-2.1.45a19.3,19.3,0,0,0-2.95.4c-1.29.18-1.65,1.12-2.59,1.88s-1.25,1.65-2.41.94-2-1.61-3.36-2.64-1.65-2-3.13-2.41-2.63-.94-3.75-.41-2.68,1.75-3.44,1.75-2.19-.32-2.73.4-.81,2.95-1.92,3.31a6.24,6.24,0,0,1-1.14.22c.16.47.31.94.46,1.39a15.08,15.08,0,0,0,1,2.65,1.39,1.39,0,0,0,.82.72,1.88,1.88,0,0,0,1.34-.4c.94-.6,1.94-1.15,2.83-.86a1.82,1.82,0,0,1,1.1,1.15,7.18,7.18,0,0,1,.22,3.09,6.85,6.85,0,0,0,.2,3,19.37,19.37,0,0,1,1.44,4.33,5.43,5.43,0,0,0,3.14,3.45,4.31,4.31,0,0,1,1.83,1.51,3,3,0,0,0,1.21,1.06c.89.41,1.34.83,1.47,1.37a2.12,2.12,0,0,1-.6,1.76,2.32,2.32,0,0,0-.43,1.31,1.9,1.9,0,0,1-.8,1.62c-.24.15-.53.31-.83.47-.73.39-1.74.93-1.65,1.42.14.79,1,1.15,2,1.56l.08,0c1.46.6,1.57,1.55,1.57,2.83,0,.16,0,.31,0,.45,0,.37,0,.7.08.8s.39.21,1.27.21a2.49,2.49,0,0,1,2,1.27,5.15,5.15,0,0,0,1.13,1.16,1.36,1.36,0,0,0,1.2.11,2.87,2.87,0,0,1,3.06.95,4.22,4.22,0,0,1,1.09,4,3.07,3.07,0,0,0,0,1.44,2.93,2.93,0,0,0,1.5,1.3l.24-.22c1.08-1,2.09-1.79,2.39-3.28s-.6-1.61-1.19-3-.24-2.8.23-1.85a7.49,7.49,0,0,0,2,2.63c.84.59.54,1.31.72,2.38s.06,1.61.89,1.91.42.83.36,1.61-2.51,4-3.22,4.89-3,1.19-3.76,1.84-2.92,2.27-1.9,2.86,2.92-.47,4.11-1.31a7.54,7.54,0,0,0,2.62-2.92c.54-1.13,1.61-2.92,2.15-4.05s1.37-2.56,1.85-3.58a13,13,0,0,1,2.8-3.75c1.43-1.37,2.5-.84,4-2.8s1.73-3.82,4.41-5.37,4.41-3.22,7.33-3.1,4.06-.89,4.95.36,1.25,2.15,2.15.6a9.74,9.74,0,0,1,3.57-4c2-1.25,6.38-3.16,7.81-2.74s2.45,2,3.4,1.19,0-2.2,1.91-3.46c.56-.37,1.48-1,2.53-1.76C421.08,224.52,421.49,222.15,422.49,221.15Z"/>
			<path class="area" id="region-5" d="M474.49,176.15c0-.69,0-1.33,0-1.81-.11-1.23-.27-2.22-1.27-2.76a4.78,4.78,0,0,0-2.67.06,6.93,6.93,0,0,1-2.19.19,1.45,1.45,0,0,1-1.24-1.18A6.28,6.28,0,0,1,467,169c0-.27,0-.54,0-.79,0-.64-.17-.69-1.06-.8-.25,0-.53-.06-.82-.12l-.2,0a9.6,9.6,0,0,1-3.69-1.42,2.65,2.65,0,0,1-1.11-2.81,3.15,3.15,0,0,0-.06-1.17c0-.05-.07-.15-.12-.17-.21-.08-.8.22-1.19.43a8.5,8.5,0,0,1-.93.43c-1.32.46-3.05-.82-3.38-1.67-.24-.62.38-1.14,1-1.63.29-.24.91-.75.87-.95-.13-.75-1-1.56-2-2.33a3.4,3.4,0,0,0-1.25-.55c-.66-.18-1.48-.41-1.52-1.44s-.24-1.43-1.28-2.52a6.64,6.64,0,0,1-1.48-3.44c-.06-.29-.12-.59-.19-.87a5.54,5.54,0,0,1,.07-2.51,5.66,5.66,0,0,0,.17-1.63,7.65,7.65,0,0,1,0-1.18,2.63,2.63,0,0,0-.77-2.58,1.9,1.9,0,0,1-.77-2.1c.07-.26.09-.36-.06-.56-.36-.46-1.43-.41-2.38-.37-.4,0-.81,0-1.18,0-1.47-.06-2.49-1-2.87-2.75-.15-.68-.34-.67-1.13-.64a6.26,6.26,0,0,1-1,0,13.4,13.4,0,0,1-5.78-2.56,5,5,0,0,0-4.68-1.15,7.67,7.67,0,0,0-3.54,2.6c-.15.16-.28.32-.41.45s-.46.47-.69.69a12.15,12.15,0,0,0-1.91,2.26c-.31.49-.15.82.16,1.36a1.48,1.48,0,0,1,.06,1.87,6.4,6.4,0,0,1-1.19,1.09,13.09,13.09,0,0,0-1.48,1.32,6,6,0,0,1-1.88,1.09c-.78.34-1.84.82-1.75,1.21.35,1.55-.21,2.22-.57,2.48a2.29,2.29,0,0,1-2.5-.18c-.91-.56-1.56-.18-2.55.49l-.35.23a1.67,1.67,0,0,1-1.92-.18,3.4,3.4,0,0,0-2-.58c-.33,0-.45.1-.46.13-.14.26.52,1.3.83,1.8a10,10,0,0,1,.64,1.07,4.81,4.81,0,0,1,0,2.88c.17.11.35.21.52.3,1,.55,1.87,1.07,1.62,2.12a5.71,5.71,0,0,1-.29.85c-.12.29-.39,1-.31,1.1a.67.67,0,0,0,.31,0c.26,0,.35-.14.43-1a2,2,0,0,1,.53-1.47,1.07,1.07,0,0,1,.89-.14,2.58,2.58,0,0,1,1.89,1.19,2.36,2.36,0,0,1-.06,2.07c-.15.37-.32.72-.49,1.06a5.45,5.45,0,0,0-.81,3A6.64,6.64,0,0,1,411,162c-.16,1.13-.21,1.74.5,2.17,1.42.84,2.72,1.74,2.94,3.3a3.36,3.36,0,0,1-.55,2,2.37,2.37,0,0,0-.43,1.68c.08.31.21.68.35,1.07.5,1.42,1.07,3,.18,3.91a4,4,0,0,1-1.92,1.09,2.31,2.31,0,0,1-2.2-.62c-.25-.25-.48-.52-.7-.78-.76-.88-1.22-1.37-1.92-1.12l-.4.13c-.74.25-1.59.53-1.82,1a1,1,0,0,0,0,.83,15.68,15.68,0,0,0,1.33,2.69c.27.47.5.87.67,1.25.44,1-.4,1.59-1.07,2.06a6.42,6.42,0,0,0-.93.74c-.48.48-.1,1.08.89,2.34.17.21.35.43.52.66a7.72,7.72,0,0,0,1.43,1.35,5.23,5.23,0,0,1,2.14,2.67,4.83,4.83,0,0,0,2.48,3.3,6,6,0,0,1,1.6,1.75c.7,1,1,1.31,1.37,1.09a4.72,4.72,0,0,0,1-.8c.54-.54,1.28-1.27,2.34-.22a10.16,10.16,0,0,1,1.06,1.38c.74,1.1,1.51,2.23,2.7,2.41a2.87,2.87,0,0,0,1.68-.32c.36-.15.73-.31,1.07-.09s.4.66.4,1.35a4,4,0,0,1-2,3.83l-.1.08c-1.09.84-1.1.91-1.26,1.74v.07a1.91,1.91,0,0,1-.81,1.25,2.77,2.77,0,0,1-2.12.32l-.21,0a9,9,0,0,0-1.16-.19c-.41,0-.51.06-.51.06s-.05.13.12.53.2.48.29.68c.48,1.12.78,1.8,0,2.61a.87.87,0,0,0-.28.72,2.1,2.1,0,0,0,1.16,1.3,5.69,5.69,0,0,1,2,2.05,8,8,0,0,0,1.05,1.36,1.08,1.08,0,0,0,1,.4c.54,0,1.06,0,1.49,1,.76,1.75-.15,2.66-1.21,3.72-.66.66-1.05,2.49-.87,4.12,2.33-1.63,5-3.41,5.71-3.45,1.19-.06,1.25.6,2.62,1s1.49-.18,2.5-1.67,1.61-5.78,3.22-6.62,3.88-.3,5.61-.36,2.2-1.49,3.51-1.31a21.21,21.21,0,0,0,4.83-.06c.83-.18,1.55-1,2.27-.12s.29,2.39,1.19,2.15.71-1.79,1.43-2.39.89-2.14.65-3.27-1.13-2-.12-3,2.57-2.27,1.26-2.87-2.92.24-2.75-1.19,1.91-1.79,2-3.69-1.61-5.37-.42-6.68a10.76,10.76,0,0,1,5.43-3.28c2.08-.35,3.1-.3,3.93-2s1.79-1.2,2.62-1.91.6-2.39.78-3.88,1.07-4.29,3.28-3.87a3.44,3.44,0,0,0,2.66-.28Z"/>
			<path class="area" id="region-21" d="M299.49,268.28a5.07,5.07,0,0,1,2.73.53,5,5,0,0,0,2.81.58,13.08,13.08,0,0,1,2.24.32c1.16.13,2.5-.23,1.92-.81s-1.52-1.52-2.32-1.56-1.26.67-1.88.18-.85-1-1.66-.72a8.41,8.41,0,0,1-2.54.81c-.76,0-3.67-.9-3.49-.18S298.6,268.28,299.49,268.28Z"/>
			<path class="area" id="region-12" d="M499.66,156.23c-.83-.72-1.61.54-2.68.48s-2.74-.42-2.08-1.25,2.8-1,2.5-2.51-2.21-2.86-2.74-3.46.06-2.2-.3-3.45-1.25-1.31-2.5-1.31-2.93,0-3.46-.84.12-2.56.18-4.29a4.4,4.4,0,0,1,1.61-3.52c1-1,1.55-2.2,2.86-1.49s1.73,1.67,3.57.54,2.75-3.28,1.91-4.17-1.85-.18-2.56.35a3.56,3.56,0,0,1-3,.24c-1.13-.3-2.68.18-3.76-1s-2.86-2-2.26-3.4,1.49-.71,2.68-1.31.66-1.49,3-1.55c1.82,0,.89-2,1.31-2.68s.42-2.45,2.09-3.46,2.5-2.08,2.5-3.46a6.52,6.52,0,0,0-1.19-3.87c-.72-.78-2.38-2.74-2.56-4.47s-.24-2.09.89-3.16,1.55-2.21.54-2.8a4.35,4.35,0,0,0-3.46-.12c-1,.36-2.15,2.2-3.28,3s-2.38,1.13-3.1.24a3.67,3.67,0,0,0-2.8-1.31c-1.19-.12-1.49-.78-2.38-2.63s-1-2.5-2.15-2.5-1.13-.83-2.38-.89-1.55,1.43-2.57,1.61a3,3,0,0,1-2.8-1.85c-1.25-2.51-1.91-3.34-2.86-3.52s-2.15,1.49-3.16,2.56-1.79,1.61-2.56,1.2-.78-2.15-2.15-2.45-2.38.72-3.93-.65-.78-2.27-1.91-3-2.38,1.19-3.28,1.43-2.2.36-2.44-.6-.84-1-1.73-1-1.37-.6-2.09-1.73a2.49,2.49,0,0,0-2.62-1.25,2.88,2.88,0,0,0-1.43,2.62c.12,1.13.72,2.92-.18,3.4a10.21,10.21,0,0,1-2.87,1c.09.33.21.66.32,1a3,3,0,0,1,.24,2.28,1.41,1.41,0,0,1-.72.63,2.36,2.36,0,0,1,.95,1.7c0,.92-.66,1.36-1.24,1.75a3,3,0,0,0-1.15,1.11c-.23.46.07.81.74,1.47a2.2,2.2,0,0,1,.92,1.45,2.07,2.07,0,0,1-.49,1.2,1.72,1.72,0,0,0-.36,1.74c0,.1.08.24.13.39.34.94,1,2.7.18,4.19a7,7,0,0,1-1,1.44,2.17,2.17,0,0,0-.68,1.34,3.1,3.1,0,0,0,.5,1.76,8.37,8.37,0,0,1,.8,2.16,7,7,0,0,0,2.22,3.93c.49.5,1.45,1.36,2.57,2.36,1.4,1.26,3,2.69,4,3.73,1.47,1.47,1.39,3.3,1.34,4.77a9.87,9.87,0,0,0,0,1.21,1.6,1.6,0,0,1,.69.52,1.37,1.37,0,0,1,.22,1.31c-.09.36-.15.62.51,1.23a3.57,3.57,0,0,1,1.06,3.31,6.17,6.17,0,0,0,0,1.05,6.6,6.6,0,0,1-.19,1.86,4.75,4.75,0,0,0-.09,2.12c.08.3.14.61.21.91a5.84,5.84,0,0,0,1.24,3,4,4,0,0,1,1.53,3.1c0,.33.14.41.87.62a4,4,0,0,1,1.57.72c1,.81,2.1,1.77,2.29,2.87.13.71-.57,1.28-1.18,1.79a3.79,3.79,0,0,0-.7.66,2.45,2.45,0,0,0,2.23,1.11,6.56,6.56,0,0,0,.81-.39c.66-.34,1.35-.7,1.93-.47a1.14,1.14,0,0,1,.64.71,3.72,3.72,0,0,1,.11,1.52c-.05.93-.05,1.53.69,2a8.59,8.59,0,0,0,3.41,1.3l.19,0c.26.06.51.09.74.12.83.1,1.86.22,1.86,1.68,0,.27,0,.56,0,.84-.08,1.38,0,1.85.54,1.94a6.47,6.47,0,0,0,1.88-.19,5.22,5.22,0,0,1,3.26,0c1.51.82,1.65,2.35,1.74,3.48a18.32,18.32,0,0,1,0,1.88v.57c.9-.31.46.91,1.93,1.33s1.07-.48,2.86-1,3-1.13,4.35-.36a3.47,3.47,0,0,0,3.22.3c1.19-.3,1.73-1.49,3.46-.83s1.85,1.55,3.64.42,1.55-3.76,1.55-5.25a2.68,2.68,0,0,0-1-2.5c-.83-1-.53-1,.54-1.85s.3-3,.54-4.17.65-3.28,1.9-4S500.5,157,499.66,156.23Z"/>
			<path class="area" id="region-21" d="M366.75,252.44a3.53,3.53,0,0,1-.11-1.92,3.42,3.42,0,0,0-.84-3.23,2,2,0,0,0-2.25-.71,2.2,2.2,0,0,1-1.89-.25,5.9,5.9,0,0,1-1.32-1.33c-.49-.62-.76-.94-1.28-.94a2.61,2.61,0,0,1-1.91-.47,1.87,1.87,0,0,1-.33-1.46c0-.13,0-.27,0-.42,0-1.32-.17-1.66-1-2l-.08,0c-1.16-.47-2.36-1-2.58-2.24-.2-1.12,1.08-1.81,2.11-2.36.28-.15.55-.3.76-.43s.35-.44.4-1a3.19,3.19,0,0,1,.61-1.77c.35-.44.5-.78.45-1s-.39-.49-1-.76a3.83,3.83,0,0,1-1.54-1.33,3.53,3.53,0,0,0-1.49-1.25,6.28,6.28,0,0,1-3.66-4.11,19.13,19.13,0,0,0-1.39-4.14,7.56,7.56,0,0,1-.26-3.37,6.61,6.61,0,0,0-.16-2.69,1,1,0,0,0-.54-.64c-.57-.19-1.52.41-2.08.76a2.64,2.64,0,0,1-2,.52A2.24,2.24,0,0,1,342,212.8a15,15,0,0,1-1.11-2.85c-.17-.52-.35-1.07-.54-1.6h0a19.13,19.13,0,0,1-2.32,0c-1-.09-2.78-.81-2.78.44s-.67,2.33.23,2.33,2.46.18,2.95-.23,1-.89,1.47-.26.49,1.47.85,2-.67.53-1.34.22a6.05,6.05,0,0,0-2.32-.36c-.67,0-1.66-.53-2,.45s-.17,3.09-1.25,4.69-2.63,2.33-3.08,3a5.16,5.16,0,0,0-.49,2.2c-.14.8-1.12,1.11-1.88,2.28s-2.28,1.6-2.06,2.9,1.21,1.16,1.88,1.83-.58.63-1.39.76-1.83.85-1.25,1.48,1.75,1.12.85,1.56-2,.59-2.5.94-2,.14-2.91.09a4.5,4.5,0,0,0-2.86,1.48,4.64,4.64,0,0,1-3,.94c-.76,0-2.24-.09-3.13-.05a15.82,15.82,0,0,0-4.07.63,21.69,21.69,0,0,0-4.07,1.92c-.71.36-1.52,1.7-2.64,2.23s-2.05.18-2.9.27-.94.36-1.84,1-3,2.14-3.71,2.63-2.63.63-2.77,1.84-.62,2.46-1.61,2.72a6,6,0,0,1-3.53-.8,21.41,21.41,0,0,0-4.69-.94c-1.25-.18-1.88,0-3.85-.31s-4.29-.23-4.74-.63-.76-.67-2.19-.67-3.57.67-4.06.14-1.21-1.66-1.57-1.3.27,1.88,1.25,2.68a10.52,10.52,0,0,1,2.37,2.68c.72,1.12.81,1.17,1.25.54s.72-2.32,1.88-2.32,1,.35,2.41,1.2,1.52.72,3.22.72,2.37,0,2.55,1.2-.36,2.15-1.74,2.91-1.61-.09-3,.27-3.75.58-2.5,1.79,1.74,1.87,2.64,1.43.27-2.19,1.47-1.34,1.7,2,3,2,1.3-.18,2.06.76,1.47,2,3.17,2.06,1.75.09,1.75,1.16,1.07,1.61,2.59,2.19,3.4,1.45,4.83,1.29c2.1-.25,2.9-2.08,5.05-1.91s2.08-1.08,3.57-.83a37.08,37.08,0,0,0,5.14.25c1.24,0,1.82-.63,1.82-1.52s.84-.06,1.2.26,1,.93,1.79.15,2-3.28,2.47-2.53-1.13,2.41.15,2.74,1.76-.36,2.29.78,1.58.62,2.27,1,.33,1.91,1.49,2,2.23.18,2.53-1.34,1.16-3.79,2.36-3.61a1.12,1.12,0,0,1,.49.19,2,2,0,0,0-.11-1.49,2.25,2.25,0,0,1-.27-2.29,1.18,1.18,0,0,1,1-.67,3.75,3.75,0,0,1,1.8.81h0a1.58,1.58,0,0,1,1.28-.79c1.55-.18,1.31,2,2.26,2s-.65-1.31.84-1.43,2.14.3,3.45,1.37,2.75,2.57,3.94,2.57.42-.72.12-1.61.71-1.25,1.37-.54,1.79.6,1.55-.18-2.57-1.61-1.73-3,1.19-.65,2.09.48,2,4.47,2.86,5,.06-1.49,0-2.39.41-2.08,1.37-1.19,1.85,2.5,3,2.44,1.73-2,2.5-1.55.48,1.67.48,2.51-.6.06-1.61.12-2,.65-1.85,1.55-.71,1.25-.42,2.14,1.2.18,1.61,1.31.6,1,1.43.3a14.8,14.8,0,0,0,2.15-1.79c.72-.83,1.25-1,.95-2.38a5.32,5.32,0,0,1-.06-3.16,1.74,1.74,0,0,1,2.63-.42c.77.78,1.49,1.31,1.49,2.09s-.6.83-1.49.3-1.49-.24-1.26.95a3.9,3.9,0,0,0,1.79,2.74c.84.36,1.43-.47,2,.66s-.3,2.14.66,3a2.84,2.84,0,0,1,.71,2.5c0,.54-1.43.78-.65,1.61s.41-.18,1.6-.3,1,1.43,2.27,1.85.83-1.07.06-2.32-2-2.33-2.56-3.64-.06-1.55-.54-3.52-.95-2.14-.83-3.39-.54-2-.6-3.22,1-1.49,1.37-2-.12-2.32.6-1.61a2,2,0,0,0,2.68.6A20.62,20.62,0,0,0,368.4,254h0A3.53,3.53,0,0,1,366.75,252.44Z"/>
			<path class="area" id="region-6" d="M156.91,38.79c-.15.15-.19.19.37.81a3.74,3.74,0,0,1,.86,1.3c.37,1.08-.92,1.63-2.06,2.11a5.33,5.33,0,0,0-1.49.79,3.75,3.75,0,0,0-.52,3.48c.52,1.47-1,3-2.12,4.11l-.11.11a4.21,4.21,0,0,0-.77,1.48c-.36,1-.78,2.13-2.07,2.45-1.45.36-1.79.54-1.79,2.89a8.4,8.4,0,0,0,.48,2.58A4.18,4.18,0,0,1,147.8,64a2,2,0,0,0,0,2.14c.11.27.24.58.37,1a2.67,2.67,0,0,1-.7,2.79,11.66,11.66,0,0,0-.78,1.14,2.45,2.45,0,0,0-.32,1.92,3.31,3.31,0,0,1,0,1.47c0,.14-.07.28-.1.41a1.68,1.68,0,0,0,.55,2.17c2,2,1.08,3.43.37,4.14a2.07,2.07,0,0,0-.8,1.5,2.32,2.32,0,0,0,1.13,1.51,8.46,8.46,0,0,0,1.8,1,3,3,0,0,1,1.7,1.42c.25.41.46.87.68,1.31.45.94.91,1.91,1.44,1.91a1.85,1.85,0,0,0,1.06-.61c.4-.35,1.07-.94,1.7-.32a7,7,0,0,1,2.06,4.21c.22,1.8.07,4.3-1.06,5.44a3.31,3.31,0,0,1-1.39.82,2,2,0,0,0-.87.49c-.26.26-.25.28-.14.7a5.48,5.48,0,0,1,.21,1.55,4.45,4.45,0,0,0,1.5,4c1.5,1.51,4.2,3.13,5.94,3.13.6,0,1.33,0,2.1.09a19.32,19.32,0,0,0,4.81-.08l.47-.12c1.66-.41,3.36-.83,5.23.16.81.43,1.11.16,1.65-.33a2.53,2.53,0,0,1,1.77-.85c.79,0,1.54.07,2.27.13s1.49.12,2.3.12a5.37,5.37,0,0,0,4.44-1.56c1-1,2.62-2.11,3.64-1.69a1.33,1.33,0,0,1,.75,1.38,10.32,10.32,0,0,0,.59,2.57c.49,1.59,1,3.23.58,4.52a4.17,4.17,0,0,0,.89,4.05c.51.51,2.91.55,4.75.25a13.54,13.54,0,0,0,3.26-1.06l1.34-.54a11.32,11.32,0,0,1,2.08-.61,10,10,0,0,1-.24-3.39,3.49,3.49,0,0,0,0-1.13,2.94,2.94,0,0,1,.21-1.9c.36-.8,1.65-1.39,3.15-2.08a10.93,10.93,0,0,0,2.54-1.41c.14-.14.27-.28.4-.4.92-.9,1.43-1.39,1.32-2.46a8.14,8.14,0,0,0-.72-2.39,16.71,16.71,0,0,1-.58-1.57,1.55,1.55,0,0,1,.9-2,2.15,2.15,0,0,0,.93-.89c.18-.37.17-.38-.23-.64a2.34,2.34,0,0,1-1.11-1.39,3.52,3.52,0,0,1,.08-1.83,2.76,2.76,0,0,0-.32-2.52,14.66,14.66,0,0,0-1.07-1.4,3.62,3.62,0,0,1-1.15-2.65c0-1.16-.49-1.25-2-1.25-1.29,0-2.07-.27-2.4-.8a1.28,1.28,0,0,1,.05-1.32,2.71,2.71,0,0,1,1.44-1.15l.09,0a2.28,2.28,0,0,1-.75-1.72,1.3,1.3,0,0,1,.71-1,.89.89,0,0,0,.49-.58,1.34,1.34,0,0,0-.51-1,1.4,1.4,0,0,1-.5-1c0-.5.41-.83.94-1.28.24-.21.51-.44.8-.73a7.46,7.46,0,0,0,1.82-4.22.33.33,0,0,0,0-.18,2.08,2.08,0,0,0-.54,0,3.08,3.08,0,0,1-1.8-.43c-1-.68-.6-1.79-.27-2.77A5.44,5.44,0,0,0,207,64.6c0-.94-1.22-1.95-2.12-2.68-.32-.27-.6-.5-.82-.71a1,1,0,0,1-.31-.79c.07-.64.79-1.12,1.56-1.63a6.19,6.19,0,0,0,.94-.7c.61-.6.3-2.18-.67-3.45a1.51,1.51,0,0,0-1.73-.66,6.7,6.7,0,0,1-1.42,0c-1.45-.17-1.38-1.39-1.32-2.37a6,6,0,0,0-.06-1.69,1.7,1.7,0,0,1,1.24-2.16,1.87,1.87,0,0,0,.84-.55c.15-.24.35-.49.53-.73.66-.84,1.1-1.48.82-2-.13-.23-.26-.44-.38-.64s-.34-.58-.49-.86a1.07,1.07,0,0,1-1.45-.87c-.18-1.25-1.14-2-1.49-3s.83-3,.06-4.35-1.26-3.4-2.92-3-1.38,2.56-3.16,3-3-.48-4.06.54a10,10,0,0,0-2.08,4.59,1.41,1.41,0,0,1-2.45.65c-.71-.89-.53-3-.71-4a3.2,3.2,0,0,0-2.27-2.15,4.94,4.94,0,0,0-4.17.36c-1.13.84-1.73.12-2.27-1.07s-.41-3.28-1.84-2.92S173,33,172.12,33.68s-2.44.65-3.45.59-2-1.19-2.74-1.9-1.49.18-1.73,1.13a13.82,13.82,0,0,1-1.31,3.64,1.56,1.56,0,0,1-2.45.41.86.86,0,0,1-.22-.55h0A11.31,11.31,0,0,0,156.91,38.79Z"/>
			<path class="area" id="region-3" d="M65.63,66.78c.17.22.34.48.51.73.68,1,1.18,1.7,1.85,1.52a2.58,2.58,0,0,0,1.07-.71c.41-.4,1.11-1.06,1.91-.26a3,3,0,0,1,.69,1.71c.12.72.19.89.43.92a2.86,2.86,0,0,0,.88,0c.51-.07,1.35-.19,1.53,1a2.59,2.59,0,0,1-.71,2,3.16,3.16,0,0,0-.53.9,2.93,2.93,0,0,0-.06,2.12.53.53,0,0,0,.45.17,1.44,1.44,0,0,0,1-.53,1.29,1.29,0,0,1,2.11,0A6.43,6.43,0,0,1,77.93,78a4.16,4.16,0,0,0,1.42,1.8,1.82,1.82,0,0,0,2.08.18,3.27,3.27,0,0,1,.89-.26,2.88,2.88,0,0,1,1.56.42,2.41,2.41,0,0,0,1.29.36h0c1.07-.14,3-.39,4.33.65l.28-.19a7.42,7.42,0,0,0,1.9-1.53.64.64,0,0,0,.16-.38c0-.22-.48-.5-.91-.77a7.71,7.71,0,0,1-1.37-1,1.16,1.16,0,0,1-.42-1.07c.15-.57.83-.76,1.5-.94a3.19,3.19,0,0,0,.8-.28,3.93,3.93,0,0,0-.45-.69,3.84,3.84,0,0,1-.86-1.57.76.76,0,0,1,.25-.82c.47-.36,1.24,0,2.13.48.3.14.57.28.77.36a1.79,1.79,0,0,0,1.41-.13c.06,0,.12-.1.12-.15a1.85,1.85,0,0,0-.16-.54c-.2-.51-.53-1.37.38-1.91a1.93,1.93,0,0,1,1.86.19l-.06-.22a2,2,0,0,1,.27-2.15c.71-.7,1.34-.1,1.68.23a1.59,1.59,0,0,0,.84.54,3.06,3.06,0,0,0,1.42-.54,5.4,5.4,0,0,1,2.53-.85c1.81,0,3.5,1.15,5,2.22.62.46.78.42.79.42a2.8,2.8,0,0,0,.38-.84c.08-.22.17-.47.28-.74a13.7,13.7,0,0,0,.65-2.65,10.43,10.43,0,0,1,.57-2.26c.48-1.06,1.32-1.18,2.2-1.31l.73-.12c.61-.12.63-.48.42-1.76,0-.17-.06-.35-.08-.53l-.06-.38c-.15-1-.27-1.84.41-2.53a2,2,0,0,1,1.58-.34c.29,0,.7,0,.74-.06a3.17,3.17,0,0,0-.65-2.94,2.27,2.27,0,0,0-1.3-.7,1.91,1.91,0,0,1-1.5-1,1.12,1.12,0,0,1,0-.91c.21-.51.79-.73,1.35-.94a3.43,3.43,0,0,0,.79-.37c1.2-.84,1-1.52.61-2a20,20,0,0,0-3.81-3.53,4.58,4.58,0,0,1-1.76-3.92c0-.4-.13-.51-.18-.54-.34-.28-1.26-.09-1.7,0-.22.05-.5.12-.8.21-1.33.36-3,.8-3.83,0s-.5-2.61-.17-4.84a12.42,12.42,0,0,0,.15-1.26,3.28,3.28,0,0,1,.91-1.94,7,7,0,0,0,.61-.89c.33-.6-.69-1.62-1.51-2.44l-.17-.16c-1.21-1.22-.56-3.39.17-4.56a9.65,9.65,0,0,1,1.56-1.66,8.47,8.47,0,0,0,1.64-1.8,8.42,8.42,0,0,0,.1-3.36h0a2.6,2.6,0,0,1-.42-.19c-1.43-.77-3.87-.12-5.84-.59S99.46,13.11,97,13.41s-4,2.09-6.56,2.09-4.59.24-7.27.06-6.38-1-7.39-.18-2.68,2-2.5,3.58-1,2.32-3.58,3.45-3.69,4.47-5.48,4-3.94-2.75-5.49-2.92-4.35-.6-4.29,1.07a7.3,7.3,0,0,0,.9,3.4c.41.83-.84,1.13-.42,1.9a4.43,4.43,0,0,1,.95,2.51c-.06,1.07.12,2-.65,2.8s-2,1.49-1.14,2.68A11.85,11.85,0,0,1,56.19,41c.77,1.73,1.37,1.55,2.62,2.5s-.41,2.39.6,3.94A5.31,5.31,0,0,1,60.24,51a7.49,7.49,0,0,0,2.27,4.24c1.19,1,2.8,1.43,2.62,2.62s-2,1.13-3.16,1-2.14.36-1.55,1.73S62,61.87,63,64a7.07,7.07,0,0,1,.59,1.8A2.23,2.23,0,0,1,65.63,66.78Z"/>
			<path class="area" id="region-24" d="M235.24,50.48c-.31.11-.63.21-.93.3.74-.21,1.57-.55,2.14-.73,1-.32.29,1.52-.24,2.4a3.36,3.36,0,0,0,0,2.62,8.21,8.21,0,0,1,0,3.32,1,1,0,0,0,0,.17v-.07a3,3,0,0,1,1.1.09c1.42.42,1.39,1.46,1.35,2.56,0,.21,0,.41,0,.63,0,.41,0,.7,0,.94a1.27,1.27,0,0,0,.31,1.18c.21.3.53.4,1,.54a3.28,3.28,0,0,1,1.58.79c1.17,1.17.37,2.18-.27,3-.25.32-.24.43-.24.43s.7.4,1,.51c.93.37,3.19.16,4.27.06l.42,0c.22,0,.47-.05.74-.08a4.36,4.36,0,0,1,2.69.15A17.33,17.33,0,0,1,253.19,73a2.93,2.93,0,0,1,0,2.39,3,3,0,0,0-.21,1.28c.09.51.59.9,1.11,1.33a5.93,5.93,0,0,1,1,1c.27.35.44.34,1,.24a4.28,4.28,0,0,1,1.13-.08,2.07,2.07,0,0,1,1.21.54.58.58,0,0,0,.62.19,3.6,3.6,0,0,0,.9-.36,2.44,2.44,0,0,1,1.88-.35c.58.17,1.43-.32,2.41-.89l.79-.46A15.41,15.41,0,0,0,268.7,75a1.78,1.78,0,0,1,1.47-.69c.67.09,1,.73,1.38,1.34a6.57,6.57,0,0,0,.39.65,2.7,2.7,0,0,0,1.72.7,5.07,5.07,0,0,1,1.42.41,1,1,0,0,1,.59,1A3,3,0,0,1,274,80.63a4.7,4.7,0,0,0,.72,1.19,8.15,8.15,0,0,1,.86,1.42,5.44,5.44,0,0,0,3.6,2.48,2.2,2.2,0,0,0,1.75-1,4.12,4.12,0,0,1,.28-.31l.31-.33c.58-.65,1.38-1.54,2.25-1.17a2.27,2.27,0,0,0,1.94.21c.66-.35,1.3.08,2,.54a5.23,5.23,0,0,0,1.63.83,15,15,0,0,0,5.86-.25c1.42-.33,2.67-1.68,3.68-2.77a14,14,0,0,1,1.08-1.09A5.76,5.76,0,0,0,301,78.93a4.09,4.09,0,0,1,1.1-1.37,1.89,1.89,0,0,1,.42-.22c.06-.2.13-.39.19-.58a4.08,4.08,0,0,0,.15-3.34c-.69-1.72-.27-3,1.24-3.67,0,0,.05,0,.06,0a3,3,0,0,0-.43-1.19,4.48,4.48,0,0,1,.84-5.59,2.59,2.59,0,0,0,.59-2,3,3,0,0,0-.59-1.64,1.78,1.78,0,0,1,.18-2.66A.82.82,0,0,0,305,56a.66.66,0,0,0-.09-.3h0a2.67,2.67,0,0,0-.59.73c-.43.65-1.08,1.64-2.05,1.14a1.67,1.67,0,0,1-.86-1.28c-.1-.43-.14-.55-.48-.61l-.57-.1c-1-.16-2.3-.36-2.3-1.89a6.74,6.74,0,0,0-.12-1.12,2.66,2.66,0,0,1,.55-2.66,6.4,6.4,0,0,1,1.19-.86c.8-.48,1.42-.85,1.42-1.86A7.38,7.38,0,0,0,300,43.79c-.16-.31-.32-.6-.44-.87a1.39,1.39,0,0,1,.35-1.77,1.16,1.16,0,0,1,1.51.2,1,1,0,0,0,.92.36c.2-.09.22-.48.22-.64a4.48,4.48,0,0,0-.43-1.62,2.47,2.47,0,0,1-.15-2.38,7.15,7.15,0,0,1,.46-.62,3.49,3.49,0,0,0,.84-2.71c0-2.31-.4-4.09-1.06-4.75-.17-.17-.36-.33-.56-.51A3.61,3.61,0,0,1,300,25.75a9.85,9.85,0,0,1,2.52-5.38,5.47,5.47,0,0,1,2.26-1.29,9.72,9.72,0,0,0,1.64-.75c1.36-.81,1.87-1.52,1.87-2.59a2.53,2.53,0,0,1,2.16-2.4c.19-.06.21-.15.23-.2a2.08,2.08,0,0,0-.77-1.5,6.66,6.66,0,0,0-1.44-.92c-1.05-.57-2.14-1.16-2.43-2.13a2.26,2.26,0,0,1,.58-2.21,2.66,2.66,0,0,0,.5-.81,14.43,14.43,0,0,0,.69-3.13,13.64,13.64,0,0,1,.3-1.88l-.15,0a3.31,3.31,0,0,1-2.8-.12c-1-.6-1.61-.78-2.27.3s-1.55,2.38-2.8,2.5-1.55.89-2.2,1.91-1.67,1.61-2.51.83-1.85-.54-3,0-2.08-.77-3-1.67A6.58,6.58,0,0,0,285.32,3c-1.13,0-1.43-1.07-2.51-.77s-2.44,1.13-1.25,2.32,1,2,.3,2.74-.65,1.25-.54,2.63,0,2.08-1.84,3.27-3,2.33-4.3,1.79-2.44-1-3.21.12-1.67-.18-2.09-1.19-.77-1.31-2.62-1.31-5.19-.3-8-.6-4-.36-4.41,1-.6,3-1.61,2.32-1.79-1.91-3.46-1.91-3.4-.65-4,.6a2.49,2.49,0,0,0-.18,2.56c.3.72-.3,1-1.37,1.67s-1.31,2.39-3.22,3.4-1.85,2-2.44,3.22-.3,2.32-1,3.69-1.73,2.15-2.14,3.16-1.55,2.21-1,3.58,2,1.73,2,3.57-.48,2.63.48,3.76.77,1.49.35,2.74-.59,3.1-2,2.86h.06C235.38,49,235.32,49.79,235.24,50.48Z"/>
			<path class="area" id="region-17" d="M108.33,20.38a8.36,8.36,0,0,1-1.83,2.06,9.74,9.74,0,0,0-1.41,1.49c-.6.95-1.09,2.65-.29,3.44l.16.16c1.08,1.09,2.32,2.32,1.67,3.51a8,8,0,0,1-.69,1,2.68,2.68,0,0,0-.73,1.4,12.22,12.22,0,0,1-.16,1.39c-.16,1.08-.53,3.63-.08,4.08s2,.05,3-.2c.31-.08.6-.16.85-.21a3,3,0,0,1,2.45.18,1.51,1.51,0,0,1,.5,1.23,3.7,3.7,0,0,0,1.41,3.22,20.7,20.7,0,0,1,4,3.72c.46.67,1,2-.83,3.27a4.71,4.71,0,0,1-1,.46c-.33.13-.78.3-.85.46a.35.35,0,0,0,0,.2c.15.33.4.4.91.54a3,3,0,0,1,1.76,1,4.05,4.05,0,0,1,.79,3.85c-.29.71-1.07.66-1.64.62-.33,0-.74-.06-.87.07-.36.36-.31.77-.16,1.77,0,.12,0,.25,0,.39s0,.33.08.5c.18,1.05.42,2.48-1.12,2.79l-.78.13c-.92.13-1.25.21-1.52.8a10,10,0,0,0-.5,2,14.21,14.21,0,0,1-.7,2.84l-.27.7c-.24.69-.44,1.24-1,1.4s-.87,0-1.58-.56c-1.7-1.26-3-2-4.42-2a4.66,4.66,0,0,0-2.11.74,3.55,3.55,0,0,1-1.94.64,2.37,2.37,0,0,1-1.36-.78,2,2,0,0,0-.36-.3.15.15,0,0,0-.07.06c-.29.28-.2.67,0,1.27a3,3,0,0,1,.17.88.65.65,0,0,1-.28.57c-.32.19-.67,0-1-.16s-.81-.4-1.06-.25-.24.21,0,.82a2.38,2.38,0,0,1,.22.86,1.07,1.07,0,0,1-.5.88,2.58,2.58,0,0,1-2.23.23,7.42,7.42,0,0,1-.86-.39,9.31,9.31,0,0,0-1.07-.49,3.94,3.94,0,0,0,.66,1.06c.43.57,1,1.27.39,1.85a2.87,2.87,0,0,1-1.22.53,3.37,3.37,0,0,0-.85.3,1.23,1.23,0,0,0,.17.21,7.09,7.09,0,0,0,1.21.89c.65.41,1.21.77,1.32,1.36a1.38,1.38,0,0,1-.33,1.09,8,8,0,0,1-2.13,1.75,4.76,4.76,0,0,0-1.34,1.07c-.1.19,0,.27,0,.31a1.67,1.67,0,0,0,1.53.22c.84-.19,1.5-.34,1.9.06a1.51,1.51,0,0,1,.16,1.42,6.82,6.82,0,0,1-.73,1.75,3.29,3.29,0,0,0-.53,1.38c0,.24,0,.52-.05.81a4.14,4.14,0,0,0,.43,2.86,7.94,7.94,0,0,0,4.68,3.23,4.79,4.79,0,0,1,.41-2.2,7.63,7.63,0,0,0,.44-1.4c.22-.9.42-1.75,1.12-2.16a1.94,1.94,0,0,1,1.56-.11l.24.07c1.94.52,2.19.59,3.72.11A5.06,5.06,0,0,1,106,89a2.88,2.88,0,0,0,2-.34,6.29,6.29,0,0,0,1.24-1.09,3.64,3.64,0,0,1,2.86-1.47c.7,0,1.35,0,2-.08a8.39,8.39,0,0,1,3,.11,3.23,3.23,0,0,0,.87.1c.66,0,1.57,0,1.57,1.56,0,.35,0,.72-.06,1.07,0,.6-.11,1.5.11,1.68a.81.81,0,0,0,.61,0,3.39,3.39,0,0,0,1.74-1.86c.4-.73.82-1.49,1.6-1.7a3.09,3.09,0,0,1,1.49,0,1.71,1.71,0,0,0,1.92-.56A14.92,14.92,0,0,0,128.68,84a20.88,20.88,0,0,1,2.59-3.29,6.17,6.17,0,0,1,2.4-1.57A1.88,1.88,0,0,0,135,78a4,4,0,0,1,2.2-2.14,2.45,2.45,0,0,1,1.9.1c.79.4,1.3.27,2.08-.51s2.32-2.32,4.36-1.75a4.34,4.34,0,0,0-.06-.61,3.31,3.31,0,0,1,.43-2.51,10.35,10.35,0,0,1,.84-1.23c.58-.75.84-1.1.56-2-.12-.36-.24-.65-.35-.91a2.86,2.86,0,0,1,.06-2.85,3.47,3.47,0,0,0-.16-2.49,9.42,9.42,0,0,1-.51-2.83c0-2.58.44-3.25,2.47-3.76.83-.2,1.11-1,1.44-1.88a4.87,4.87,0,0,1,1-1.82l.11-.11c.94-.94,2.24-2.23,1.91-3.18a4.6,4.6,0,0,1,.73-4.41,5.65,5.65,0,0,1,1.77-1c.62-.27,1.67-.71,1.57-1a3.14,3.14,0,0,0-.69-1c-.45-.49-1.13-1.25-.33-2a13.87,13.87,0,0,1,4.3-2.27c.07-.18.15-.38.22-.6.36-1.13,1.31-2.39-.12-2.86a31.73,31.73,0,0,1-3.93-1.31c-1.2-.6-1.67.47-2.27,1.13s-2.8.77-3.52.36.36-1.2-.83-2.63-2.27,0-2.27-1.49.9-3.75-1.43-3.87-3.33,1.55-5.12,1.31-3.82-2-5.37-3a11.13,11.13,0,0,0-5.66-1.43c-1.55.06-1.85-1.13-3-1.61s-2.56,1.31-4,.42-1.67-1.91-3.34-2.63-2.21-.06-4.47-.71-2.33-1.67-3.82-1.13a10.61,10.61,0,0,1-3,.91A7.94,7.94,0,0,1,108.33,20.38Z"/>
			<path class="area" id="region-1" d="M205.26,44.06c.6,1-.22,2.12-.88,3a7.46,7.46,0,0,0-.49.67,2.64,2.64,0,0,1-1.22.88c-.65.29-.92.41-.74,1.13a6.88,6.88,0,0,1,.09,1.95c-.07,1.18,0,1.37.52,1.44a6.35,6.35,0,0,0,1.24,0,2.33,2.33,0,0,1,2.52,1c1.1,1.44,1.67,3.55.6,4.63a7,7,0,0,1-1.09.81c-.34.23-1.15.76-1.16,1a.18.18,0,0,0,.06.07,9.79,9.79,0,0,0,.75.65c1,.85,2.44,2,2.44,3.37a6.19,6.19,0,0,1-.41,1.87c-.34,1-.45,1.49-.07,1.75a2.2,2.2,0,0,0,1.29.27,1.56,1.56,0,0,1,1.22.35,1,1,0,0,1,.21.87,8.47,8.47,0,0,1-2.07,4.75c-.32.31-.62.57-.86.78s-.62.53-.63.64,0,.09.24.33a2.11,2.11,0,0,1,.77,1.76,1.7,1.7,0,0,1-.93,1.24c-.25.14-.27.27-.27.31a1.6,1.6,0,0,0,.6,1.08.8.8,0,0,1,.29.7c-.07.37-.42.53-.77.68a1.83,1.83,0,0,0-1,.75c-.06.11-.15.32-.09.43s.6.37,1.64.37c1.3,0,2.93,0,2.93,2.15a2.75,2.75,0,0,0,.94,2.08,15.3,15.3,0,0,1,1.13,1.48,3.67,3.67,0,0,1,.44,3.21,2.71,2.71,0,0,0-.09,1.4,1.48,1.48,0,0,0,.74.87,1.21,1.21,0,0,1,.54,1.78,3,3,0,0,1-1.25,1.25c-.55.35-.67.45-.52,1s.36,1,.55,1.49a9.06,9.06,0,0,1,.78,2.63c.15,1.5-.61,2.24-1.58,3.19l-.4.39a10.41,10.41,0,0,1-2.8,1.59c-1.11.51-2.48,1.15-2.71,1.64a2.11,2.11,0,0,0-.14,1.4,4.24,4.24,0,0,1,0,1.4,9.62,9.62,0,0,0,.26,3.17,1.9,1.9,0,0,1,1,.26,1,1,0,0,1,.44.85,2.9,2.9,0,0,1-.27,1.06c-.22.54-.34.84.14,1.31a6.82,6.82,0,0,1,1.25,1.5,1.34,1.34,0,0,1-.22,1.7c-.19.19-.63.63.3,1.56a1.69,1.69,0,0,1,.32,1.84,1.42,1.42,0,0,1-1.34.92.61.61,0,0,0-.54.43,1.41,1.41,0,0,0,.41,1.5l3.73,3.73c.91.91,2.08,2.08,2,3.44a3.39,3.39,0,0,0,2.54-.18A5.07,5.07,0,0,0,217,134a7.44,7.44,0,0,1,1.86-2.25,3.94,3.94,0,0,1,2.93-.41,5,5,0,0,0,.82.09c.2,0,.39-.41.57-.76.28-.57.7-1.44,1.62-1.17a1.2,1.2,0,0,1,.89,1.2.88.88,0,0,0,.59.9,5.93,5.93,0,0,0,1.61.45,4.49,4.49,0,0,1,2.61,1.14l.11.1a7.64,7.64,0,0,0,.26-1.58,13.51,13.51,0,0,1,.19-1.36,2.05,2.05,0,0,1,.86-1.52,2.44,2.44,0,0,1,2,.05c1.16.37,1.76.44,2.56-.36,1.33-1.33,2.76.1,3.45.78s1.63.18,2.31-.5a1.58,1.58,0,0,1,2-.39,3.79,3.79,0,0,0,1.35.26.52.52,0,0,0,.31-.06,1.84,1.84,0,0,0,0-.78,2.89,2.89,0,0,1,.66-2.47,13.63,13.63,0,0,0,1.53-1.93,16.29,16.29,0,0,1,1.72-2.14,4.8,4.8,0,0,0,1.24-1.72,1,1,0,0,0-.3-1.15c-.95-1-.47-1.71.05-2.51a9.93,9.93,0,0,0,.61-1.07,13.34,13.34,0,0,0,.83-3.88c.1-.84.21-1.78.39-2.76.41-2.32,1.37-2.49,2.83-2.76a12.71,12.71,0,0,0,2-.47,3.15,3.15,0,0,1,2.31-.1,8.72,8.72,0,0,0-.27-2.25c-.39-1.13-1.13-.71-2.06-.18s-2,1.67-2.83,1.76a2.76,2.76,0,0,1-2.41-.74c-.81-.75-2.36-.36-3.46-1.28a21.94,21.94,0,0,1-2.77-3.49,7,7,0,0,0-2.77-2.18,7.35,7.35,0,0,1-3.22-2.41c-.78-1-.39-3.1.18-2.38a6.15,6.15,0,0,1,1.58,2.44c.23,1.07,1.58,1.34,2.68,1.43s1.4.8,1.79,1.52a28.89,28.89,0,0,0,2.2,2.71,12.15,12.15,0,0,0,3,2.09c.75.45,2.09.12,3.46-.39s1.55-1.19,2.68-1.19a16.28,16.28,0,0,1,2.51.51,3.92,3.92,0,0,1,3,1.75c.61.7.79,2.54.88,3.68,0,.21,0,.43.05.65h0a14,14,0,0,0,1.55.22c1,.1,1.78-1.49,2.43-2.77a7.54,7.54,0,0,1,1-1.67A4,4,0,0,0,270.15,99c-.53-1.9.44-3.09,1.49-4.13,1.19-1.2,1.56-1.62,1.32-2.51a1.64,1.64,0,0,1,.41-1.61,2.33,2.33,0,0,1,2.14-.58,2.06,2.06,0,0,1,.35.12c.32-1,1-3,1.5-4.23a6,6,0,0,1-2.65-2.49,7.38,7.38,0,0,0-.76-1.23c-.54-.75-1-1.4-.86-2a.86.86,0,0,1,.49-.55,2.26,2.26,0,0,0,1.2-1.42.18.18,0,0,0-.11-.19,4.69,4.69,0,0,0-1.17-.32,3.34,3.34,0,0,1-2.27-1,5.69,5.69,0,0,1-.46-.74c-.22-.39-.49-.87-.72-.9-.07,0-.29,0-.72.44a16.47,16.47,0,0,1-3.84,2.93l-.77.44c-1.16.67-2.16,1.26-3.11,1-.39-.12-.72,0-1.23.29a4.84,4.84,0,0,1-1.13.44,1.43,1.43,0,0,1-1.35-.38,1.28,1.28,0,0,0-.74-.34,3.22,3.22,0,0,0-.89.07,1.64,1.64,0,0,1-1.85-.57,6,6,0,0,0-.89-.82,3.21,3.21,0,0,1-1.44-1.86,3.85,3.85,0,0,1,.23-1.7c.19-.63.37-1.23.1-1.66A16.38,16.38,0,0,0,249.63,70a4.1,4.1,0,0,0-2.09,0l-.78.1-.41,0c-1.73.16-3.65.3-4.69-.12-.73-.3-1.36-.55-1.51-1.11a1.42,1.42,0,0,1,.41-1.21c.8-1,.85-1.3.34-1.82a2.57,2.57,0,0,0-1.19-.56,2.47,2.47,0,0,1-1.54-.88,2.14,2.14,0,0,1-.48-1.75c0-.23,0-.51,0-.89s0-.45,0-.65c0-1.13,0-1.46-.72-1.68a2.32,2.32,0,0,0-1,0,39.45,39.45,0,0,0-.22,4.25c0,1.52-.07,4.49-.07,5.55a4.41,4.41,0,0,1-1.31,3c-.85.92,0,1.88.1,2.9.11,1.74-2.08-.67-2.75-2a9.72,9.72,0,0,1-.71-4.56,5.69,5.69,0,0,1,1.24-3.15c.7-1.09.17-1.77.17-3.25s-.14-2.55-1-3.25-2.72-.14-3.32-1,2.72-1.2,3.39-2,.25-2.58-.14-3.6.75-1.63,1.52-1.38a2.77,2.77,0,0,0,1.35-.12c.1-.73.19-1.84.25-2.85-1.21-.45-2.53-1.33-3.35-1.61-1-.36-1.14-1.85-1.14-3s-1.49-.89-2.5-2.26-1.85-2.56-3-2.56-4.05-.24-4.83.71-3.28,2.68-4.41,2.09-.42-2.21-2.15-2.68-2.92.77-3.57,1-1.37,1.25-2.09,2.32-2.2-.59-2.86.36a1.27,1.27,0,0,1-.21.25c.14.27.3.54.48.84Z"/>
			<path class="area" id="region-13" d="M24.86,135.46a9.34,9.34,0,0,1,.86,1c.79,1,1.31,1.57,1.89,1.32a1.94,1.94,0,0,1,1.65-.09c.6.29,1,1,1.39,2.27a3.13,3.13,0,0,0,3.28,2.58,4.64,4.64,0,0,1,2.84,1.22,4.51,4.51,0,0,0,1.95,1,2.45,2.45,0,0,0,1.34-.17,2.17,2.17,0,0,1,1-.17l.08-.17c.63-1.4,1.09-2.41.77-3.59q-.1-.36-.21-.69a3.28,3.28,0,0,1,.4-3.46,7,7,0,0,1,1.44-1.48,3.81,3.81,0,0,0,1.36-1.73,8.55,8.55,0,0,0,.38-1.57c.23-1.24.49-2.64,2.13-2.64a8,8,0,0,1,2.29.47,4,4,0,0,0,3,.19c1.14-.59,1.63-.37,2.15,0a1.5,1.5,0,0,0,1,.32c.38,0,.41-.1.53-.51a1.44,1.44,0,0,1,1.56-1.25,3,3,0,0,1,1.8.59,1.37,1.37,0,0,0,1.39.24c.47-.13.85-.28,1.22-.42a5,5,0,0,1,3.17-.4,2.56,2.56,0,0,0,2.37-.47c.08-.14-.07-.33-.2-.46a2.69,2.69,0,0,0-1.23-.65A1.56,1.56,0,0,1,65,125a3.23,3.23,0,0,1,1-2.36,6.74,6.74,0,0,0,.93-1.3c.38-.7.12-1-.31-1.41a1.91,1.91,0,0,1-.69-1.28,1.14,1.14,0,0,1,.83-1.11c.31-.13.46-.2.46-.71v-.2c0-1.38,0-2.68,1.67-3,1.39-.31,3.3.11,7.18,1.58l.06-.42c.26-1.4,1.31-1.84,2.77-2.46l.57-.24a17,17,0,0,0,4.6-3.46,2,2,0,0,1,1.49-.67c.34,0,.52,0,.84-.79a2,2,0,0,0-.07-1.57c-.25-.8-.57-1.79,1.18-2.62a11.14,11.14,0,0,1,3-1,8.23,8.23,0,0,0,1.78-.5c.32-.13.67-.25,1-.37,1.51-.53,2.94-1,3.11-2.7a13.8,13.8,0,0,0,0-2.5V95.7a8.75,8.75,0,0,1-5.44-3.6,4.93,4.93,0,0,1-.6-3.48,7.06,7.06,0,0,0,.05-.73,3.94,3.94,0,0,1,.63-1.8,6.22,6.22,0,0,0,.65-1.52,1.84,1.84,0,0,0,.07-.59,5.78,5.78,0,0,0-1.06.17,2.41,2.41,0,0,1-2.44-.55,1.15,1.15,0,0,1-.07-1.27,2.43,2.43,0,0,1,.59-.67,5.71,5.71,0,0,0-3.44-.31h0a3.15,3.15,0,0,1-1.79-.45,2.15,2.15,0,0,0-1.07-.33,2.66,2.66,0,0,0-.65.2,2.7,2.7,0,0,1-2.93-.28,5.05,5.05,0,0,1-1.71-2.12,5.25,5.25,0,0,0-1-1.51c-.19-.19-.36-.3-.44-.28a1.35,1.35,0,0,0-.42.32,2.23,2.23,0,0,1-1.61.78,1.35,1.35,0,0,1-1.16-.54c-.55-.72-.35-2-.09-2.89a3.86,3.86,0,0,1,.67-1.19,1.85,1.85,0,0,0,.55-1.31.86.86,0,0,0-.07-.24,1.57,1.57,0,0,0-.45,0,3.87,3.87,0,0,1-1.15,0c-.92-.15-1.06-1-1.17-1.67a2.32,2.32,0,0,0-.44-1.22c-.17-.17-.19-.18-.67.28a3.35,3.35,0,0,1-1.46.93c-1.33.35-2.15-.89-2.82-1.89-.16-.25-.32-.49-.47-.69a1.33,1.33,0,0,0-1.26-.61c0,.71-.08,1.32-.08,2,0,1.31-.06,3-1,3.22s-1.08.83-1.85,2.5-1.89,1.67-3.34,1.67c-1.79,0-2.8-.3-3.81.6s-1.19,2.08-3.28,3-3.4,2.62-5.54,4.23A141.8,141.8,0,0,0,33.24,94.54c-1.43,1.73-4.77,5.54-6.08,6.85s-4.53,4.29-5.6,5.72-1.61,2.87-1,3.94-1,1.79.17,3.22.3,3.22.9,4,.18,1.61-.48,2.68-2.26,2.45-1.49,3.4,3.94,2.92,3.94,4.11a14.47,14.47,0,0,0,.65,3.76.31.31,0,0,1,0,.21c.06.42.07.81.09,1.17A2.45,2.45,0,0,0,24.86,135.46Z"/>
		</g>
	</g>
</svg>